<svg xmlns="http://www.w3.org/2000/svg" xmlns:xlink="http://www.w3.org/1999/xlink" viewBox="0 0 48 48"><defs><linearGradient id="a" x1="1" x2="47" gradientUnits="userSpaceOnUse" gradientTransform="rotate(-90 24 24)"><stop stop-color="#9717f2"/><stop offset="1" stop-color="#ff00b0"/></linearGradient><linearGradient xlink:href="#a" id="b" x1="14.359" y1="35.007" x2="41.647" y2="35.007" gradientUnits="userSpaceOnUse" gradientTransform="translate(35.055 -25.735) scale(1.32895)"/></defs><path d="M59.157 18.075c-.875-.261-3.987 1.33-3.987 1.33 1.574-5.829 10.632-10.632 10.632-10.632-.961-.355-3.987 0-3.987 0 7.08-6.888 15.947-3.987 15.947-3.987.26-1.504 3.987-3.987 3.987-3.987-.438.439 0 2.658 0 2.658.437-.796 1.48-1.422 1.48-1.422-.787 1.853 0 5.828 0 5.828 2.271 2.298 4.806 10.252 4.806 10.252l.963 1.413c1.224 1.77.775 3.892-.438 4.55-3.398 2.034-4.983-1.366-4.983-1.366-3.76-.444-7.144-4.638-7.144-4.638-5.065 2.65-.746 10.77 1.443 13.64 2.811 3.681-.114 8.952-.114 8.952s-8.814 0-16.394-8.164c-3.54-3.797-4.87-9.113-2.211-14.428z" fill="none" stroke="url(#b)" stroke-width="1.5" transform="translate(-48.304 2.291)"/></svg>