<svg xmlns="http://www.w3.org/2000/svg" xmlns:xlink="http://www.w3.org/1999/xlink" height="48" width="48"><defs><linearGradient id="a" x1="31" gradientUnits="userSpaceOnUse" x2="31" gradientTransform="matrix(1.14282 0 0 -1 -4.57 1052.3)" y1="1000.4" y2="1040.4"><stop stop-color="#ff7f1c" offset="0"/><stop stop-color="#ff00a4" offset="1"/></linearGradient><linearGradient xlink:href="#a" id="b" x1="-.499" y1="32" x2="64.5" y2="32" gradientUnits="userSpaceOnUse" gradientTransform="translate(2.123 2.603) scale(.68685)"/><linearGradient xlink:href="#a" id="c" x1="18.5" y1="32" x2="45.5" y2="32" gradientUnits="userSpaceOnUse"/><linearGradient xlink:href="#a" id="d" gradientUnits="userSpaceOnUse" x1="18.5" y1="32" x2="45.5" y2="32"/><linearGradient xlink:href="#a" id="e" gradientUnits="userSpaceOnUse" x1="18.5" y1="32" x2="45.5" y2="32"/><linearGradient xlink:href="#a" id="f" gradientUnits="userSpaceOnUse" x1="18.5" y1="32" x2="45.5" y2="32"/></defs><path style="isolation:auto;mix-blend-mode:normal;solid-color:#000" d="M24.103 39.692c-12.955 0-19.37-9.824-21.373-13.493-.286-.526-.605-1.035-.606-1.617.002-.582.32-1.091.606-1.616 2.002-3.67 8.418-13.494 21.373-13.494 12.954 0 19.37 9.824 21.373 13.493.286.525.604 1.035.605 1.617-.001.582-.32 1.091-.606 1.617-2 3.669-8.417 13.493-21.372 13.493z" color="#000" fill="none" stroke="url(#b)" stroke-width="1.8"/><g transform="translate(1.745 2.224) scale(.69867)" color="#000" stroke="url(#c)" stroke-width="2.091"><circle style="isolation:auto;mix-blend-mode:normal;solid-color:#000" cy="32" cx="32" r="13" fill="none" stroke="url(#d)" stroke-width="2.29"/><path style="isolation:auto;mix-blend-mode:normal;solid-color:#000" d="M41.748 37.034h-2.133l-2.539-2.538-4.23 4.23-6.77-6.769-4.223 4.224A11 11 0 0 0 32 42.957a11 11 0 0 0 9.748-5.923z" fill="#a8a8a8" stroke="url(#e)" stroke-width="1.046"/><circle style="isolation:auto;mix-blend-mode:normal;solid-color:#000" cy="28.607" cx="36.23" r="3.385" fill="#a8a8a8" stroke="url(#f)" stroke-width="1.046"/></g></svg>