<svg xmlns="http://www.w3.org/2000/svg" viewBox="0 0 48 48"><path d="M24 1c-1.721 0-3.387.204-5 .563v44.875c1.613.358 3.279.563 5 .563s3.387-.204 5-.563V1.563A23.009 23.009 0 0 0 24 1z" fill="none" stroke="#fffd00" stroke-width="1.5"/><path d="M9 6.563C4.103 10.781 1 17.03 1 24.001s3.103 13.22 8 17.438V6.564z" fill="none" stroke="#0076ff" stroke-width="1.5"/><path d="M19 1.563a22.925 22.925 0 0 0-10 5v34.875a22.925 22.925 0 0 0 10 5V1.563z" fill="none" stroke="#00b94d" stroke-width="1.5"/><path d="M29 1.563v44.875a22.925 22.925 0 0 0 10-5V6.563a22.925 22.925 0 0 0-10-5z" fill="none" stroke="#ff9b00" stroke-width="1.5"/><path d="M39 6.563v34.875C43.897 37.22 47 30.971 47 24s-3.103-13.22-8-17.438z" fill="none" stroke="#ff4900" stroke-width="1.5"/><path d="M15 16v2h2l-3 14h-2v2h7v-2h-1.7l1.1-6H20l3 6c.508 1.016 1.4 2 3 2h3l7-7 2-3v-1l-1-1h-1l-1 1v3l-4.5 5 1.5-8-1-1-4 1v1h2l-1 8h-1l-4-8 6-6h2v-2h-7v2h2.3l-6.7 7h-1l1.4-7h2v-2z" opacity=".1"/><path d="M14 15v2h2l-3 14h-2v2h7v-2h-1.7l1.1-6H19l3 6c.508 1.016 1.4 2 3 2h3l7-7 2-3v-1l-1-1h-1l-1 1v3l-4.5 5 1.5-8-1-1-4 1v1h2l-1 8h-1l-4-8 6-6h2v-2h-7v2h2.3l-6.7 7h-1l1.4-7h2v-2z" fill="#333"/></svg>