<svg xmlns="http://www.w3.org/2000/svg" xmlns:xlink="http://www.w3.org/1999/xlink" viewBox="0 0 48 48"><defs><linearGradient id="b"><stop offset="0" stop-color="#ff0552"/><stop offset="1" stop-color="#ff146e"/></linearGradient><linearGradient id="a"><stop stop-color="#0fdaa2" offset="0"/><stop stop-color="#1765e7" offset="1"/></linearGradient><linearGradient xlink:href="#a" id="d" x1="20" y1="18" x2="41.351" y2="33.05" gradientUnits="userSpaceOnUse"/><linearGradient xlink:href="#b" id="c" x1="12.651" y1="7.684" x2="19.452" y2="19.583" gradientUnits="userSpaceOnUse"/><linearGradient xlink:href="#a" id="e" gradientUnits="userSpaceOnUse" x1="25" y1="18" x2="41.351" y2="33.05" gradientTransform="translate(3.82 2.215) scale(.90828)"/></defs><path d="M12.204 5.016v17l4-4.309 4 4.309v-17" fill="none" stroke="url(#c)" stroke-width="1.75"/><g fill="none" stroke="url(#d)" stroke-width="1.75"><path word-spacing="0" letter-spacing="0" font-weight="400" style="line-height:125%;-inkscape-font-specification:'Impregnable Personal Use Only'" d="M42.154 7.411a15.083 15.083 0 0 0-2.988 1.66c-1.676 1.19-3.263 2.69-4.762 4.497-1.455 1.764-2.778 3.772-3.969 6.02a30.158 30.158 0 0 0-2.58 6.878c-.617 2.38-.88 4.563-.792 6.548.133 1.939.55 3.571 1.256 4.894.706 1.322 1.675 2.27 2.91 2.843 1.235.574 2.69.684 4.365.33 1.632-.352 3.285-1.122 4.96-2.313a23.665 23.665 0 0 0 1.6-1.272v-4.15a16.803 16.803 0 0 1-1.004.726c-1.322.838-2.602 1.322-3.837 1.455-1.278.133-2.357-.088-3.239-.661-.881-.573-1.566-1.433-2.05-2.58-.441-1.146-.662-2.512-.662-4.1 0-1.631.263-3.396.793-5.291a24.288 24.288 0 0 1 2.249-5.423c.97-1.765 2.027-3.308 3.173-4.63 1.191-1.367 2.425-2.47 3.704-3.307.293-.195.583-.364.873-.522z" font-family="Impregnable Personal Use Only" stroke="url(#e)"/><rect width="36" height="40" x="6.204" y="5.016" ry="0" stroke-linecap="round" stroke-linejoin="round"/></g></svg>