<svg xmlns="http://www.w3.org/2000/svg" xmlns:xlink="http://www.w3.org/1999/xlink" viewBox="0 0 48 48"><defs><linearGradient id="a"><stop offset="0" stop-color="#ff00b3"/><stop offset="1" stop-color="#ff003e"/></linearGradient><linearGradient id="c"><stop stop-color="#ff0075" offset="0"/><stop stop-color="#ff0036" offset="1"/></linearGradient><linearGradient id="b"><stop offset="0" stop-color="#0dff14"/><stop offset="1" stop-color="#fcdc00"/></linearGradient><linearGradient xlink:href="#a" id="e" x1="5.141" y1="35.57" x2="42.43" y2="35.57" gradientUnits="userSpaceOnUse"/><linearGradient xlink:href="#b" id="d" gradientUnits="userSpaceOnUse" x1="5.141" y1="14.468" x2="42.43" y2="14.468"/><linearGradient xlink:href="#c" id="f" x1="24.1" y1="35.57" x2="41.935" y2="35.57" gradientUnits="userSpaceOnUse"/></defs><path d="M22.337 14.468a7.783 7.783 0 0 1-7.782 7.783 7.783 7.783 0 0 1-7.785-7.782 7.783 7.783 0 0 1 7.784-7.784 7.783 7.783 0 0 1 7.783 7.783m0 0" fill="none" stroke="#6ff10c" stroke-width="1.8"/><path d="M14.554 6.555a7.915 7.915 0 0 0-7.913 7.913 7.915 7.915 0 0 0 7.913 7.913h18.465a7.915 7.915 0 0 0 7.911-7.913 7.915 7.915 0 0 0-7.913-7.913z" fill="none" stroke="url(#d)" stroke-width="2"/><path d="M10.108 15.044l3.702 2.981L19 12.071l-1.111-1.16-4.079 4.8-2.43-1.986zm0 0" fill="#44f70f" fill-rule="evenodd"/><g stroke="url(#e)" stroke-width="2"><path d="M25 35.569a8.017 8.017 0 0 0 8.017 8.019 8.017 8.017 0 0 0 8.018-8.02 8.017 8.017 0 0 0-8.016-8.015A8.017 8.017 0 0 0 25 35.569m0 0" fill="none" stroke="url(#f)" stroke-width="1.8"/><path d="M14.554 27.656A7.915 7.915 0 0 0 6.64 35.57a7.915 7.915 0 0 0 7.913 7.914h18.465a7.915 7.915 0 0 0 7.911-7.914 7.915 7.915 0 0 0-7.913-7.913z" fill="none"/><path d="M29.448 32h1.485l2.084 2.677L35.11 32h1.479l-2.679 3.569 2.679 3.57h-1.485l-2.086-2.676-1.784 2.676h-1.785l2.677-3.57z" fill="#ff0045" stroke="none"/></g></svg>