<svg xmlns="http://www.w3.org/2000/svg" xmlns:xlink="http://www.w3.org/1999/xlink" viewBox="0 0 48 48"><defs><linearGradient id="a"><stop stop-color="#00fff1" offset="0"/><stop stop-color="#003dff" offset="1"/></linearGradient><linearGradient xlink:href="#a" id="b" gradientUnits="userSpaceOnUse" x1="6.457" y1="6.424" x2="46.779" y2="44.389" gradientTransform="translate(1.875 2.078) scale(.92188)"/></defs><path d="M24 3c11.711 0 21.204 9.493 21.204 21.203 0 11.711-9.493 21.204-21.204 21.204-11.71 0-21.203-9.493-21.203-21.204C2.797 12.493 12.29 3 24 3z" fill="none" stroke="url(#b)" stroke-width="2.018"/><path d="M22.427 23.129l-5.754-5.754a.97.97 0 0 1 0-1.38l.043-.048a.983.983 0 0 1 1.385 0l5.752 5.753a.983.983 0 0 1 0 1.386l-.046.043a.97.97 0 0 1-1.38 0m0 0" fill="#09f"/><path d="M23.988 22.314h14.604c.544 0 .98.436.98.98v.25a.98.98 0 0 1-.98.98H23.988a.982.982 0 0 1-.98-.98v-.25c0-.544.44-.98.98-.98m0 0" fill="#ff0053"/><path d="M15.892 36.977l7.845-14.453a.464.464 0 0 1 .652-.177l.07.043a.522.522 0 0 1 .18.685l-7.845 14.453a.464.464 0 0 1-.651.176l-.066-.042a.519.519 0 0 1-.185-.685m0 0" fill="#00ff43"/><path d="M26.624 23.418a2.51 2.51 0 1 1-5.022 0 2.51 2.51 0 0 1 2.51-2.511 2.51 2.51 0 0 1 2.512 2.51m0 0"/><text style="line-height:1.25" x="17.762" y="13.184" font-weight="400" font-size="44.166" font-family="sans-serif" letter-spacing="0" word-spacing="0" stroke-width="1.104"><tspan x="17.762" y="13.184" style="-inkscape-font-specification:'cmr6, Normal';font-variant-ligatures:normal;font-variant-caps:normal;font-variant-numeric:normal;font-feature-settings:normal;text-align:start" font-size="10.305" font-family="cmr6">12</tspan></text></svg>