<svg xmlns="http://www.w3.org/2000/svg" xmlns:xlink="http://www.w3.org/1999/xlink" width="48" height="48"><defs><linearGradient id="a"><stop stop-color="#1dd991"/><stop offset="1" stop-color="#0af"/></linearGradient><linearGradient xlink:href="#a" id="b" gradientUnits="userSpaceOnUse" x1="8.595" y1="13.704" x2="40.228" y2="43.942"/><linearGradient xlink:href="#a" id="c" gradientUnits="userSpaceOnUse" x1="8.595" y1="13.704" x2="40.228" y2="43.942"/><linearGradient xlink:href="#a" id="d" gradientUnits="userSpaceOnUse" x1="8.595" y1="13.704" x2="40.228" y2="43.942"/><linearGradient xlink:href="#a" id="e" gradientUnits="userSpaceOnUse" x1="8.595" y1="13.704" x2="40.228" y2="43.942"/><linearGradient xlink:href="#a" id="f" gradientUnits="userSpaceOnUse" x1="8.595" y1="13.704" x2="40.228" y2="43.942"/><linearGradient xlink:href="#a" id="g" x1="3" y1="24" x2="45" y2="24" gradientUnits="userSpaceOnUse" gradientTransform="translate(1.15 1.15) scale(.95206)"/></defs><g transform="translate(-458.292 -614.199) scale(1.20364)" fill="#4d4d4d"><circle r="2.094" cy="541.442" cx="411.906"/><path d="M386.571 538.532v2.492h2.492v-2.492zm2.492 2.492v2.493h2.493v-2.493z"/></g><g transform="translate(5.69 4.124) scale(.78318)" fill="none" stroke="url(#b)" stroke-linecap="round" stroke-linejoin="round"><path d="M21.984 32.417a4.937 4.937 0 0 0-4.948 4.947 4.937 4.937 0 0 0 4.948 4.949 4.937 4.937 0 0 0 4.948-4.949 4.937 4.937 0 0 0-4.948-4.947" stroke="url(#c)" stroke-width="2.474"/><path d="M30.44 8.78l-4.392 4.393 6.588 6.59-6.59 6.588 4.393 4.392 10.982-10.981z" stroke="url(#d)" stroke-width="2.196"/><path d="M11.427 21.829a3.703 3.703 0 0 0-3.712 3.71 3.704 3.704 0 0 0 3.712 3.712 3.704 3.704 0 0 0 3.71-3.712 3.704 3.704 0 0 0-3.71-3.711" stroke="url(#e)" stroke-width="2.474"/><path d="M16.065 11.243a2.468 2.468 0 0 0-2.474 2.473 2.468 2.468 0 0 0 2.474 2.474 2.468 2.468 0 0 0 2.473-2.474 2.468 2.468 0 0 0-2.473-2.473" stroke="url(#f)" stroke-width="2.474"/></g><rect width="38.041" height="38.041" x="5" y="5" ry="0" fill="none" stroke="url(#g)" stroke-width="2" stroke-linecap="round" paint-order="markers stroke fill"/></svg>