<svg xmlns="http://www.w3.org/2000/svg" xmlns:xlink="http://www.w3.org/1999/xlink" viewBox="0 0 48 48"><defs><linearGradient id="a"><stop stop-color="#00ff16" offset="0"/><stop stop-color="#bf0" offset="1"/></linearGradient><linearGradient xlink:href="#a" id="c" x1="81.08" y1="56.893" x2="394.73" y2="284.231" gradientUnits="userSpaceOnUse" gradientTransform="translate(2.23 7.547) scale(.09573)"/><linearGradient xlink:href="#a" id="b" x1="6.402" y1="24.319" x2="32.866" y2="24.319" gradientUnits="userSpaceOnUse" gradientTransform="translate(1.898 1.153)"/></defs><path d="M16.327 13.617c-1.703-.016-3.495.227-4.944 1.185-1.234.8-1.963 2.162-2.404 3.527-.57 1.815-.691 3.738-.678 5.63.026 1.75.176 3.523.739 5.19.343.987.846 1.958 1.646 2.65 1.042.91 2.418 1.32 3.768 1.48 1.126.126 2.273.14 3.394-.043.83 1.36 1.653 2.728 2.479 4.092.97-.446 1.936-.897 2.906-1.344-.772-1.25-1.56-2.49-2.33-3.74a6.427 6.427 0 0 0 2.312-3.127c.638-1.836.724-3.803.72-5.73-.022-1.912-.223-3.856-.907-5.655-.423-1.096-1.057-2.156-2.033-2.842-1.344-.968-3.047-1.253-4.668-1.273zm-.547 2.69c.75-.028 1.508.062 2.207.34a3.214 3.214 0 0 1 1.734 1.626c.52 1.123.72 2.363.82 3.588.11 1.63.095 3.273-.13 4.892-.158.964-.385 1.98-1.037 2.74-.663.763-1.684 1.09-2.664 1.167-1.034.075-2.124 0-3.057-.49a2.968 2.968 0 0 1-1.277-1.301c-.328-.668-.507-1.396-.633-2.125-.381-2.313-.474-4.707.047-7.006.214-.868.526-1.757 1.16-2.41.55-.56 1.32-.85 2.086-.958a7.98 7.98 0 0 1 .744-.064zm12.046-1.566h3.044c.003 1.342 0 2.684.002 4.026 1.297.002 2.594 0 3.892 0-.022.872-.046 1.743-.071 2.614-1.296.003-2.592 0-3.888.002.003 2.2-.007 4.4.005 6.6.025.602.01 1.237.277 1.793.193.43.714.54 1.138.554.8-.003 1.598-.05 2.397-.064.049.8.096 1.6.142 2.4-1.59.268-3.26.588-4.84.088-.664-.197-1.284-.638-1.554-1.296-.484-1.12-.523-2.364-.544-3.566-.002-2.17 0-4.34 0-6.51-.708 0-1.416.002-2.123 0-.002-.87-.002-1.742 0-2.613.707-.003 1.414 0 2.12-.002.004-1.342 0-2.684.003-4.026z" fill="url(#b)"/><path d="M8.309 7.547h38.148v26.306A1492.651 1492.651 0 0 1 40.293 40H2.23V13.616c2.018-2.03 4.053-4.046 6.079-6.069z" fill="none" stroke="url(#c)" stroke-width="2" stroke-linecap="square" stroke-linejoin="round"/><g fill="#6a6a6a" fill-rule="evenodd" stroke="#dcdcdc" stroke-width=".754" stroke-linecap="round" stroke-linejoin="round" stroke-opacity=".855"><path d="M28.774 43.675c0-4.525 1.352-10.055 4.7-13.403 3.347-3.348 8.877-4.7 13.403-4.7-8.432 8.529-9.155 9.135-18.103 18.103z"/><path d="M28.774 43.675l18.103-18.102c0 4.526-1.352 10.056-4.7 13.403-3.348 3.348-8.877 4.7-13.403 4.7z"/></g></svg>