<svg xmlns="http://www.w3.org/2000/svg" xmlns:xlink="http://www.w3.org/1999/xlink" viewBox="0 0 48 48"><defs><linearGradient xlink:href="#a" id="c" x1="81.08" y1="56.893" x2="394.73" y2="284.231" gradientUnits="userSpaceOnUse" gradientTransform="translate(295.392 97.665) scale(.57731)"/><linearGradient xlink:href="#a" id="b" x1="6.402" y1="24.319" x2="32.866" y2="24.319" gradientUnits="userSpaceOnUse" gradientTransform="translate(1.898 2.44)"/><linearGradient id="a"><stop offset="0" stop-color="#00ff16"/><stop offset="1" stop-color="#bf0"/></linearGradient></defs><path d="M16.327 14.904c-1.703-.016-3.495.227-4.944 1.185-1.234.8-1.963 2.162-2.404 3.527-.57 1.815-.691 3.738-.678 5.63.026 1.75.176 3.523.739 5.19.343.987.846 1.958 1.646 2.651 1.042.91 2.418 1.32 3.768 1.48 1.126.125 2.273.14 3.394-.044.83 1.361 1.653 2.728 2.479 4.092.97-.446 1.936-.897 2.906-1.344-.772-1.25-1.56-2.49-2.33-3.74a6.427 6.427 0 0 0 2.312-3.127c.638-1.836.724-3.803.72-5.729-.022-1.913-.223-3.857-.907-5.656-.423-1.096-1.057-2.156-2.033-2.842-1.344-.968-3.047-1.253-4.668-1.273zm-.547 2.69c.75-.028 1.508.062 2.207.341a3.214 3.214 0 0 1 1.734 1.625c.52 1.123.72 2.363.82 3.588.11 1.63.095 3.273-.13 4.892-.158.964-.385 1.98-1.037 2.74-.663.763-1.684 1.09-2.664 1.167-1.034.075-2.124 0-3.057-.489a2.968 2.968 0 0 1-1.277-1.302c-.328-.668-.507-1.396-.633-2.125-.381-2.313-.474-4.707.047-7.006.214-.868.526-1.757 1.16-2.41.55-.56 1.32-.85 2.086-.958a7.98 7.98 0 0 1 .744-.064zm12.046-1.566h3.044c.003 1.342 0 2.684.002 4.026 1.297.002 2.594 0 3.892 0-.022.872-.046 1.743-.071 2.614-1.296.003-2.592 0-3.888.002.003 2.2-.007 4.4.005 6.6.025.602.01 1.237.277 1.793.193.43.714.54 1.138.554.8-.003 1.598-.05 2.397-.064.049.8.096 1.601.142 2.401-1.59.267-3.26.587-4.84.087-.664-.197-1.284-.638-1.554-1.296-.484-1.119-.523-2.364-.544-3.566-.002-2.17 0-4.339 0-6.51-.708 0-1.416.002-2.123 0-.002-.87-.002-1.742 0-2.613.707-.003 1.414 0 2.12-.002.004-1.342 0-2.684.003-4.026z" fill="url(#b)"/><path d="M332.052 97.665h230.06v158.64a9001.635 9001.635 0 0 1-37.174 37.07H295.392V134.26c12.17-12.245 24.444-24.397 36.66-36.596z" fill="none" stroke="url(#c)" stroke-width="12.061" transform="translate(-46.752 -7.36) scale(.16582)" stroke-linejoin="round" stroke-linecap="square"/><path d="M40.778 27.058c-.555 0-1.11.21-1.535.636l-12.391 12.39v6.514h6.513l12.39-12.39c.85-.852.85-2.22 0-3.07l-3.442-3.444a2.162 2.162 0 0 0-1.535-.636z" style="isolation:auto;mix-blend-mode:normal;solid-color:#000;solid-opacity:1" overflow="visible" color="#000" fill="#6a6a6a" stroke="#cccccb"/></svg>