<svg xmlns="http://www.w3.org/2000/svg" xmlns:xlink="http://www.w3.org/1999/xlink" viewBox="0 0 48 48"><defs><linearGradient id="a"><stop offset="0" stop-color="#0069ff"/><stop offset="1" stop-color="#ff00f5"/></linearGradient><linearGradient xlink:href="#a" id="b" x1="2.088" y1="23.994" x2="45.904" y2="23.994" gradientUnits="userSpaceOnUse"/></defs><path d="M18.356 6.1c-.781 0-1.545.253-2.288.763-.744.51-1.247 1.13-1.532 1.824l-1.12 3.916H8.484c-1.558 0-2.868.554-3.968 1.628-1.107 1.08-1.678 2.398-1.678 3.916v18.261c0 1.52.573 2.792 1.678 3.866 1.1 1.074 2.409 1.621 3.968 1.621h31.024c1.558 0 2.918-.553 4.019-1.62 1.1-1.082 1.627-2.353 1.627-3.867v-18.26c0-1.52-.527-2.836-1.627-3.917-1.1-1.08-2.461-1.628-4.02-1.628h-4.931l-1.12-3.916c-.273-.7-.781-1.317-1.527-1.83-.744-.51-1.513-.764-2.288-.764zm4.92 9.759c5.348-.394 10.491 4.406 10.48 9.76 0 5.118-4.654 9.766-9.76 9.766-5.12 0-9.766-4.654-9.766-9.767-.013-4.883 4.183-9.41 9.055-9.76m-.007 0" fill="none" stroke="url(#b)" stroke-width="1.8"/><path d="M29.262 25.664a5.26 5.26 0 1 1-10.52 0 5.26 5.26 0 0 1 10.52 0m0 0" fill="none" stroke="#ff006c" stroke-width="1.454"/></svg>