<svg xmlns="http://www.w3.org/2000/svg" xmlns:xlink="http://www.w3.org/1999/xlink" viewBox="0 0 48 48"><defs><linearGradient id="a"><stop stop-color="#ff00bc" offset="0"/><stop stop-color="#0067ff" offset="1"/></linearGradient><linearGradient xlink:href="#a" id="b" x1="11.102" y1="14.039" x2="42" y2="41" gradientUnits="userSpaceOnUse"/><linearGradient xlink:href="#a" id="g" x1="456.414" y1="541.125" x2="470.414" y2="541.125" gradientUnits="userSpaceOnUse" gradientTransform="translate(-758.398 -885.16) scale(1.68781)"/><linearGradient xlink:href="#a" id="c" gradientUnits="userSpaceOnUse" x1="11.102" y1="14.039" x2="42" y2="41"/><linearGradient xlink:href="#a" id="d" gradientUnits="userSpaceOnUse" x1="11.102" y1="14.039" x2="42" y2="41"/><linearGradient xlink:href="#a" id="e" gradientUnits="userSpaceOnUse" x1="11.102" y1="14.039" x2="42" y2="41"/><linearGradient xlink:href="#a" id="f" gradientUnits="userSpaceOnUse" x1="11.102" y1="14.039" x2="42" y2="41"/></defs><g transform="translate(-4.212 -4.32) scale(1.17549)" fill="none" stroke="url(#b)" stroke-linecap="round" paint-order="markers stroke fill"><circle r="1.535" cy="9.515" cx="38.454" stroke="url(#c)" stroke-width="1.5"/><circle r="1.535" cy="9.515" cx="32.454" stroke="url(#d)" stroke-width="1.5"/><circle r="1.535" cy="9.515" cx="26.454" stroke="url(#e)" stroke-width="1.5"/><rect ry="2" y="14" x="6" height="27" width="36" stroke="url(#f)" stroke-width="2"/></g><path d="M34.852 16.356a2.954 13.291 44.998 0 0-10.994 7.528 2.954 13.291 44.998 0 0-5.234 6.075 5.125 5.125 0 0 1 3.335 3.335 2.954 13.291 44.998 0 0 6.074-5.232 2.954 13.291 44.998 0 0 7.31-11.487 2.954 13.291 44.998 0 0-.49-.219M17.848 32.093c-5.907 1.584-1.477 5.323-5.907 7.88 5.913 0 8.86-2.954 8.86-4.926 0-.982.1-2.79-2.952-2.954z" fill="url(#g)"/></svg>