<?xml version="1.0" encoding="UTF-8"?><svg xmlns="http://www.w3.org/2000/svg" width="600" height="300" viewBox="0 0 600 300"><rect width="600" height="300" style="fill:#c00"/><path d="M 67.8,79.9 L 76.5,88.6 L 83.6,81.3 C 99.4,97.6 115.2,114 131,130.3 C 134.5,129.5 136.4,128.1 137.5,124.1 L 88.8,76.2 L 98.6,67.4 L 84.3,63.5 L 67.8,79.9 L 67.8,79.9 z" id="hammer" style="fill:#ffd700"/><path d="M 95.8,30.7 L 82.3,30.7 L 93.2,38.7 L 89.1,51.5 L 100,43.6 L 110.9,51.5 L 106.8,38.6 L 117.7,30.7 L 104.2,30.7 L 100,17.8008 L 100,17.8 L 95.8,30.7 z M 100,25.8 L 102.4,33.2 L 110.1,33.2 L 103.9,37.7 L 106.26115,45.055357 L 99.99998,40.501778 L 93.73881,45.1 L 96.1,37.7 L 89.9,33.17 L 97.62,33.17 L 100,25.8 L 100,25.8 z" id="star" style="fill:#ffd700"/><path d="M 100.1,55.3 C 121.1,63 134.3,80.6 134.38,93.6 C 134.6,122.3 103.3,136.1 83.1,113 L 81.7,114 L 82,116.5 C 75.9,115.9 70.4,134.6 63.8,129.4 C 57.8,121.8 74.4,118.3 76.1,110.6 L 78.5,110.8 L 80.5,108.7 L 82.4,109 L 84.8,106.5 C 104.5,127.3 129.4,111.2 125.9,90.5 C 123.4,74.6 113.4,65.5 100,55.3 L 100.1,55.3 L 100.1,55.3 L 100.1,55.3 L 100.1,55.3 L 100.1,55.3 L 100.1,55.3 z" id="sichel" style="fill:#ffd700"/></svg>
