<svg xmlns="http://www.w3.org/2000/svg" width="48" height="48"><path d="M8.407 44.522c0 .932.947 1.92 1.84 1.92h29.351c.893 0 1.84-.988 1.84-1.92" fill="none" stroke="#616161" opacity=".25" stroke-width=".688"/><path d="M14.947 15.595a.65.65 0 0 0-.452 1.115l2.418 2.417A10.4 10.4 0 0 0 14.3 26v10.4h20.8V26a10.4 10.4 0 0 0-2.597-6.864l2.418-2.417a.65.65 0 0 0-.467-1.119.65.65 0 0 0-.455.2l-2.42 2.42A10.4 10.4 0 0 0 24.7 15.6a10.4 10.4 0 0 0-6.87 2.605l-2.416-2.415a.65.65 0 0 0-.467-.195zM24.58 16.9a9.1 9.1 0 0 1 .12 0 9.1 9.1 0 0 1 5.964 2.236 9.1 9.1 0 0 1 .914.926A9.1 9.1 0 0 1 33.8 26H15.6a9.1 9.1 0 0 1 2.23-5.957 9.1 9.1 0 0 1 .834-.838 9.1 9.1 0 0 1 .087-.078 9.1 9.1 0 0 1 5.83-2.227zm-3.78 3.9a1.3 1.3 0 0 0-1.3 1.3 1.3 1.3 0 0 0 1.3 1.3 1.3 1.3 0 0 0 1.3-1.3 1.3 1.3 0 0 0-1.3-1.3zm7.8 0a1.3 1.3 0 0 0-1.3 1.3 1.3 1.3 0 0 0 1.3 1.3 1.3 1.3 0 0 0 1.3-1.3 1.3 1.3 0 0 0-1.3-1.3zm-13 6.5h7.8v1.3h1.3v-1.3h9.1v7.8H15.6v-7.8zm9.1 1.3v1.3H26v-1.3h-1.3zm0 1.3h-1.3v2.6H26v-1.3h-1.3v-1.3z" fill="#9bd916"/><g fill="none" stroke="#616161" stroke-width=".688"><path d="M8.367 43.963c0 .933.946 1.92 1.838 1.92h29.353c.892 0 1.838-.987 1.838-1.92m0 0V14.23L29.01 1.843l-18.805.001c-.946 0-1.838.933-1.838 1.92v40.2"/><path d="M29.01 1.844L41.385 14.23H30.907c-.927 0-1.898-.981-1.898-1.908zm0 0" stroke-linecap="round" stroke-linejoin="round"/></g></svg>