<svg xmlns="http://www.w3.org/2000/svg" width="48" height="48"><path d="M8.407 44.522c0 .932.947 1.92 1.84 1.92h29.351c.893 0 1.84-.988 1.84-1.92" fill="none" stroke="#616161" opacity=".25" stroke-width=".688"/><g fill="#FF7F00" color="#7F8080"><path d="M16.9 22.1V26h1.3v-1.3h5.2V26h1.3v-3.9h-1.3v1.3h-5.2v-1.3h-1.3zm7.8 7.8v3.9H26v-1.3h5.2v1.3h1.3v-3.9h-1.3v1.3H26v-1.3h-1.3z"/><path d="M18.2 15.6s-1.3 0-1.3 1.3h-2.6v19.5h20.8V16.9h-2.6c0-1.3-1.3-1.3-1.3-1.3h-3.9s-1.3 0-1.3 1.3h-2.6c0-1.3-1.3-1.3-1.3-1.3h-3.9zm0 1.3h3.9v1.3h-3.9v-1.3zm9.1 0h3.9v1.3h-3.9v-1.3zm-11.7 3.9h18.2v14.3H15.6V20.8z"/></g><g fill="none" stroke="#616161" stroke-width=".688"><path d="M8.367 43.963c0 .933.946 1.92 1.838 1.92h29.353c.892 0 1.838-.987 1.838-1.92m0 0V14.23L29.01 1.843l-18.805.001c-.946 0-1.838.933-1.838 1.92v40.2"/><path d="M29.01 1.844L41.385 14.23H30.907c-.927 0-1.898-.981-1.898-1.908zm0 0" stroke-linecap="round" stroke-linejoin="round"/></g></svg>