<svg xmlns="http://www.w3.org/2000/svg" width="48" height="48"><path d="M8.407 44.522c0 .932.947 1.92 1.84 1.92h29.351c.893 0 1.84-.988 1.84-1.92" fill="none" stroke="#616161" opacity=".25" stroke-width=".688"/><path d="M24.7 15.6c-5.743 0-10.4 1.552-10.4 3.467v13.866c0 1.915 4.657 3.467 10.4 3.467s10.4-1.552 10.4-3.467V19.067c0-1.915-4.657-3.467-10.4-3.467m-.03 1.28c4.787 0 8.697 1.229 8.697 2.187 0 .957-3.88 1.733-8.667 1.733s-8.667-.776-8.667-1.733c0-.958 3.85-2.158 8.637-2.158m-9 3.886c1.922.97 5.51 1.616 9 1.617 3.488 0 7.227-.494 9.152-1.462v5.019c0 .957-4.365 2.036-9.152 2.036s-9-1.23-9-2.187zm0 6.994c1.922.97 5.54 1.677 9.03 1.677 3.488 0 7.228-.584 9.152-1.554v5.02c0 .958-4.426 2.128-9.213 2.128s-8.97-1.291-8.97-2.25z" fill="#FE3F00"/><g fill="none" stroke="#616161" stroke-width=".688"><path d="M8.367 43.963c0 .933.946 1.92 1.838 1.92h29.353c.892 0 1.838-.987 1.838-1.92m0 0V14.23L29.01 1.843l-18.805.001c-.946 0-1.838.933-1.838 1.92v40.2"/><path d="M29.01 1.844L41.385 14.23H30.907c-.927 0-1.898-.981-1.898-1.908zm0 0" stroke-linecap="round" stroke-linejoin="round"/></g></svg>