<svg xmlns="http://www.w3.org/2000/svg" width="48" height="48"><path d="M8.407 44.522c0 .932.947 1.92 1.84 1.92h29.351c.893 0 1.84-.988 1.84-1.92" fill="none" stroke="#616161" opacity=".25" stroke-width=".688"/><path d="M20.8 15.6v5.2h1.3v-5.2h-1.3zm2.6 1.3v3.9h1.3v-3.9h-1.3zm-5.2 1.3v2.6h1.3v-2.6h-1.3zm7.8 0v2.6h1.3v-2.6H26zm-10.4 1.3v1.3h1.3v-1.3h-1.3zm13 0v1.3h1.3v-1.3h-1.3zm-14.3 2.6v7.8a5.2 5.187 0 0 0 0 .013 5.2 5.187 0 0 0 5.2 5.187h-3.9v1.3h14.3v-1.3H26a5.2 5.187 0 0 0 5.2-5.187 5.2 5.187 0 0 0 0-.013h2.6c.72 0 1.3-.58 1.3-1.3v-3.9c0-.72-.58-1.3-1.3-1.3h-2.6v-1.3H14.3zm1.3 1.3h14.3v6.5a3.9 3.9 0 0 1-3.9 3.9h-6.5a3.9 3.9 0 0 1-3.9-3.9v-6.5zm15.6 1.3h2.6v3.9h-2.6v-3.9z" fill="#FF7F00"/><g fill="none" stroke="#616161" stroke-width=".688"><path d="M8.367 43.963c0 .933.946 1.92 1.838 1.92h29.353c.892 0 1.838-.987 1.838-1.92m0 0V14.23L29.01 1.843l-18.805.001c-.946 0-1.838.933-1.838 1.92v40.2"/><path d="M29.01 1.844L41.385 14.23H30.907c-.927 0-1.898-.981-1.898-1.908zm0 0" stroke-linecap="round" stroke-linejoin="round"/></g></svg>