<svg xmlns="http://www.w3.org/2000/svg" width="48" height="48"><path d="M8.407 44.522c0 .932.947 1.92 1.84 1.92h29.351c.893 0 1.84-.988 1.84-1.92" fill="none" stroke="#616161" opacity=".25" stroke-width=".688"/><path class="ColorScheme-Text" d="M24.7 15.6c-5.762 0-10.4 4.638-10.4 10.4s4.638 10.4 10.4 10.4S35.1 31.762 35.1 26s-4.638-10.4-10.4-10.4zm0 1.3c5.041 0 9.1 4.059 9.1 9.1s-4.059 9.1-9.1 9.1-9.1-4.059-9.1-9.1 4.059-9.1 9.1-9.1zm0 1.3a7.783 7.783 0 0 0-7.8 7.8h3.9c0-2.16 1.74-3.9 3.9-3.9v-3.9zm0 5.2c-1.44 0-2.6 1.16-2.6 2.6s1.16 2.6 2.6 2.6 2.6-1.16 2.6-2.6-1.16-2.6-2.6-2.6zm0 1.3c.72 0 1.3.58 1.3 1.3s-.58 1.3-1.3 1.3-1.3-.58-1.3-1.3.58-1.3 1.3-1.3zm3.9 1.3c0 2.16-1.74 3.9-3.9 3.9v3.9c4.321 0 7.8-3.479 7.8-7.8h-3.9z" color="#7F8080" fill="#00FE7F"/><g fill="none" stroke="#616161" stroke-width=".688"><path d="M8.367 43.963c0 .933.946 1.92 1.838 1.92h29.353c.892 0 1.838-.987 1.838-1.92m0 0V14.23L29.01 1.843l-18.805.001c-.946 0-1.838.933-1.838 1.92v40.2"/><path d="M29.01 1.844L41.385 14.23H30.907c-.927 0-1.898-.981-1.898-1.908zm0 0" stroke-linecap="round" stroke-linejoin="round"/></g></svg>