<svg xmlns="http://www.w3.org/2000/svg" width="48" height="48"><path d="M8.407 44.522c0 .932.947 1.92 1.84 1.92h29.351c.893 0 1.84-.988 1.84-1.92" fill="none" stroke="#616161" opacity=".25" stroke-width=".688"/><path style="line-height:normal;-inkscape-font-specification:Sans;text-indent:0;text-align:start;text-decoration-line:none;text-transform:none;block-progression:tb;marker:none" d="M26.65 15.6l-5.2 20.48 1.3.32 5.2-20.48-1.3-.32zm-6.82 3.9l-5.167 6.038L14.3 26l.364.461 5.165 6.039.971-.922L16.037 26l4.763-5.578-.97-.922zm12.02 0a3.25 3.25 0 0 0-3.25 3.25v1.95h1.3v-1.95a1.95 1.95 0 0 1 1.95-1.95 1.95 1.95 0 0 1 1.95 1.95V26h-.65a3.25 3.25 0 0 0-3.25 3.25v.65h1.3v-.65a1.95 1.95 0 0 1 1.95-1.95h1.95v-4.55a3.25 3.25 0 0 0-3.25-3.25zm-1.3 11.7a.65.65 0 0 0-.65.65.65.65 0 0 0 .65.65.65.65 0 0 0 .65-.65.65.65 0 0 0-.65-.65z" color="#7F8080" font-weight="400" font-family="Sans" overflow="visible" fill="#007FFF"/><g fill="none" stroke="#616161" stroke-width=".688"><path d="M8.367 43.963c0 .933.946 1.92 1.838 1.92h29.353c.892 0 1.838-.987 1.838-1.92m0 0V14.23L29.01 1.843l-18.805.001c-.946 0-1.838.933-1.838 1.92v40.2"/><path d="M29.01 1.844L41.385 14.23H30.907c-.927 0-1.898-.981-1.898-1.908zm0 0" stroke-linecap="round" stroke-linejoin="round"/></g></svg>