<svg xmlns="http://www.w3.org/2000/svg" width="48" height="48"><path d="M8.407 44.522c0 .932.947 1.92 1.84 1.92h29.351c.893 0 1.84-.988 1.84-1.92" fill="none" stroke="#616161" opacity=".25" stroke-width=".688"/><path d="M19.5 15.6c-.72 0-1.3.58-1.3 1.3s.58 1.3 1.3 1.3 1.3-.58 1.3-1.3-.58-1.3-1.3-1.3zm9.1 0L26 18.2l3.9 3.9L26 26l2.6 2.6 3.9-3.9 2.6-2.6-6.5-6.5zm-12.35 7.8c-1.08 0-1.95.87-1.95 1.95s.87 1.95 1.95 1.95 1.95-.87 1.95-1.95-.87-1.95-1.95-1.95zm5.85 7.8c-1.44 0-2.6 1.16-2.6 2.6s1.16 2.6 2.6 2.6 2.6-1.16 2.6-2.6-1.16-2.6-2.6-2.6z" fill="#007FFF"/><g fill="none" stroke="#616161" stroke-width=".688"><path d="M8.367 43.963c0 .933.946 1.92 1.838 1.92h29.353c.892 0 1.838-.987 1.838-1.92m0 0V14.23L29.01 1.843l-18.805.001c-.946 0-1.838.933-1.838 1.92v40.2"/><path d="M29.01 1.844L41.385 14.23H30.907c-.927 0-1.898-.981-1.898-1.908zm0 0" stroke-linecap="round" stroke-linejoin="round"/></g></svg>