<svg xmlns="http://www.w3.org/2000/svg" width="48" height="48"><path d="M8.407 44.522c0 .932.947 1.92 1.84 1.92h29.351c.893 0 1.84-.988 1.84-1.92" fill="none" stroke="#616161" opacity=".25" stroke-width=".688"/><path d="M22.446 33.907c-1.768 0-2.972-.857-2.65-3.038.402-2.727 2.087-3.622 7.427-4.363.04 0 1.686-.273 1.686-.273l-.682 4.83c-1.446 1.753-4.056 2.844-5.781 2.844zm5.499-.234l.082 2.259h2.288l2.088-14.607c.643-4.438-1.967-5.725-5.622-5.725-2.609 0-5.179.741-6.704 1.598l.442 2.414c1.646-.779 3.894-1.324 5.941-1.324 2.53 0 3.453 1.207 3.133 3.544l-.363 2.22-1.886.235c-4.858.74-9.596 1.479-10.358 6.699-.563 3.74 1.726 5.414 4.776 5.414a8.437 8.437 0 0 0 6.183-2.726z" style="line-height:125%;-inkscape-font-specification:'Oxygen Italic'" font-style="italic" font-weight="400" font-family="Oxygen" letter-spacing="0" word-spacing="0" fill="#7F8080"/><g fill="none" stroke="#616161" stroke-width=".688"><path d="M8.367 43.963c0 .933.946 1.92 1.838 1.92h29.353c.892 0 1.838-.987 1.838-1.92m0 0V14.23L29.01 1.843l-18.805.001c-.946 0-1.838.933-1.838 1.92v40.2"/><path d="M29.01 1.844L41.385 14.23H30.907c-.927 0-1.898-.981-1.898-1.908zm0 0" stroke-linecap="round" stroke-linejoin="round"/></g></svg>