<svg xmlns="http://www.w3.org/2000/svg" width="48" height="48"><path d="M8.407 44.522c0 .932.947 1.92 1.84 1.92h29.351c.893 0 1.84-.988 1.84-1.92" fill="none" stroke="#616161" opacity=".25" stroke-width=".688"/><path d="M24.64 32.456l-6.52-6.521 6.52-6.513 2.175 2.17-4.351 4.343 2.175 2.175 6.518-6.518-5.68-5.675a1.19 1.19 0 0 0-1.678 0l-9.18 9.18a1.186 1.186 0 0 0 0 1.683l9.181 9.18a1.19 1.19 0 0 0 1.677 0l9.18-9.18a1.185 1.185 0 0 0 0-1.684l-1.33-1.33zm0 0" fill="#FFBF00"/><g fill="none" stroke="#616161" stroke-width=".688"><path d="M8.367 43.963c0 .933.946 1.92 1.838 1.92h29.353c.892 0 1.838-.987 1.838-1.92m0 0V14.23L29.01 1.843l-18.805.001c-.946 0-1.838.933-1.838 1.92v40.2"/><path d="M29.01 1.844L41.385 14.23H30.907c-.927 0-1.898-.981-1.898-1.908zm0 0" stroke-linecap="round" stroke-linejoin="round"/></g></svg>