<svg xmlns="http://www.w3.org/2000/svg" width="48" height="48"><path d="M8.407 44.522c0 .932.947 1.92 1.84 1.92h29.351c.893 0 1.84-.988 1.84-1.92" fill="none" stroke="#616161" opacity=".25" stroke-width=".688"/><path d="M32.015 19.886l-5.141.845c.074 3.198-3.335 5.421-6.533-.604l-6.049.847c.941 3.257 4.321 3.658 6.577 5.372-1.129 1.607-6.25.638-6.111 5.653l5.141-.847c-.074-3.198 5.86-5.89 9.057.134l6.05-.847c-.945-3.265-4.538-3.575-6.79-5.298 1.117-2.335 4.812-.236 3.8-5.255z" fill="#FE003F"/><g fill="none" stroke="#616161" stroke-width=".688"><path d="M8.367 43.963c0 .933.946 1.92 1.838 1.92h29.353c.892 0 1.838-.987 1.838-1.92m0 0V14.23L29.01 1.843l-18.805.001c-.946 0-1.838.933-1.838 1.92v40.2"/><path d="M29.01 1.844L41.385 14.23H30.907c-.927 0-1.898-.981-1.898-1.908zm0 0" stroke-linecap="round" stroke-linejoin="round"/></g></svg>