<svg xmlns="http://www.w3.org/2000/svg" width="48" height="48"><path d="M8.407 44.522c0 .932.947 1.92 1.84 1.92h29.351c.893 0 1.84-.988 1.84-1.92" fill="none" stroke="#616161" opacity=".25" stroke-width=".688"/><path d="M17.592 30.64c-.221.398-.398.998-.398 1.375 0 .089 0 .2.02.355l-2.771-4.771a1.238 1.238 0 0 1-.156-.577c0-.2.066-.443.156-.598l1.331-2.33-1.486-.843 4.836-.089 2.353 4.238-1.508-.866-2.376 4.106m2.13-13.446a2.167 2.167 0 0 1 1.952-1.132c.91 0 1.62.422 2.13 1.287l.755 1.263-2.619 4.528-4.238-2.463 2.02-3.484m.309 17.284a2.32 2.32 0 0 1-2.308-2.307c0-.355.156-.956.379-1.331l.71-1.265h5.26v4.903h-4.041m4.217-17.418c-.333-.576-.776-.975-1.31-1.199h5.46c.487 0 .864.2 1.086.579l1.354 2.307 1.465-.866-2.353 4.216-4.814-.067 1.486-.843-2.374-4.127m8.41 12.558c.665 0 1.22-.177 1.686-.53l-2.752 4.791a1.228 1.228 0 0 1-1.086.598H27.91v1.71l-2.485-4.15 2.485-4.15v1.732h4.75m2.128-3.995c.2.355.312.732.312 1.131 0 .8-.51 1.643-1.22 2.041a2.79 2.79 0 0 1-1.264.291h-1.468l-2.616-4.529 4.238-2.418 2.018 3.484" fill="#7F8080"/><g fill="none" stroke="#616161" stroke-width=".688"><path d="M8.367 43.963c0 .933.946 1.92 1.838 1.92h29.353c.892 0 1.838-.987 1.838-1.92m0 0V14.23L29.01 1.843l-18.805.001c-.946 0-1.838.933-1.838 1.92v40.2"/><path d="M29.01 1.844L41.385 14.23H30.907c-.927 0-1.898-.981-1.898-1.908zm0 0" stroke-linecap="round" stroke-linejoin="round"/></g></svg>