<svg xmlns="http://www.w3.org/2000/svg" width="48" height="48"><path d="M8.407 44.522c0 .932.947 1.92 1.84 1.92h29.351c.893 0 1.84-.988 1.84-1.92" fill="none" stroke="#616161" opacity=".25" stroke-width=".688"/><g fill="#7F8080"><path d="M14.3 15.6v20.8h20.8V15.6H14.3zm1.3 5.2h18.2v14.3H15.6V20.8z"/><path d="M24.7 22.1c-1.084 0-2.096.333-2.808.956a3.224 3.224 0 0 0-1.092 2.457h2.228c0-.515.177-.85.44-1.078.262-.23.643-.385 1.232-.385.588 0 .969.156 1.231.385.263.229.44.563.44 1.078 0 .447-.1.637-.234.806-.582.512-1.284.95-1.85 1.37-.636.418-1.259.967-1.259 1.724v.487h2.228v-.487c.793-.71 1.973-1.33 2.708-1.98.388-.485.636-1.148.636-1.92a3.224 3.224 0 0 0-1.092-2.457c-.712-.624-1.725-.956-2.808-.956zm-1.672 9.75v1.95h2.228v-1.95z"/></g><g fill="none" stroke="#616161" stroke-width=".688"><path d="M8.367 43.963c0 .933.946 1.92 1.838 1.92h29.353c.892 0 1.838-.987 1.838-1.92m0 0V14.23L29.01 1.843l-18.805.001c-.946 0-1.838.933-1.838 1.92v40.2"/><path d="M29.01 1.844L41.385 14.23H30.907c-.927 0-1.898-.981-1.898-1.908zm0 0" stroke-linecap="round" stroke-linejoin="round"/></g></svg>