<svg xmlns="http://www.w3.org/2000/svg" width="48" height="48"><path d="M8.407 44.522c0 .932.947 1.92 1.84 1.92h29.351c.893 0 1.84-.988 1.84-1.92" fill="none" stroke="#616161" opacity=".25" stroke-width=".688"/><path style="line-height:125%;-inkscape-font-specification:oxygen" d="M23.459 15.6c-2.31 0-3.28.918-3.28 3.263v3.172c0 1.448-.043 3.125-1.319 3.125h-.66v1.677h.66c1.276 0 1.32 1.677 1.32 3.125v3.174c0 2.345.968 3.263 3.279 3.263v-1.54c-1.541 0-1.562-.62-1.562-2.873v-2.619c0-1.08-.266-2.688-1.564-3.354 1.298-.667 1.564-2.276 1.564-3.357v-2.642c0-2.253.021-2.875 1.56-2.875V15.6zm2.462 0v1.54c1.54 0 1.582.62 1.582 2.872v2.644c0 1.08.266 2.691 1.564 3.357-1.298.666-1.564 2.274-1.564 3.354v2.62c0 2.252-.042 2.874-1.582 2.874V36.4c2.31 0 3.3-.918 3.3-3.263v-3.172c0-1.448.087-3.125 1.342-3.125h.637v-1.677h-.637c-1.254 0-1.343-1.677-1.343-3.125v-3.175c0-2.345-.988-3.263-3.3-3.263zM24.7 22.1a1.3 1.3 0 0 0-1.3 1.3 1.3 1.3 0 0 0 1.3 1.3 1.3 1.3 0 0 0 1.3-1.3 1.3 1.3 0 0 0-1.3-1.3zm0 5.2a1.3 1.3 0 0 0-1.3 1.3 1.3 1.3 0 0 0 1.3 1.3v1.3h.169c.31-.334.893-1.313 1.06-2.179a1.3 1.3 0 0 0 .071-.38 1.3 1.3 0 0 0 0-.041 1.3 1.3 0 0 0-1.3-1.3z" font-weight="400" font-family="oxygen" letter-spacing="0" word-spacing="0" fill="#FF7F00"/><g fill="none" stroke="#616161" stroke-width=".688"><path d="M8.367 43.963c0 .933.946 1.92 1.838 1.92h29.353c.892 0 1.838-.987 1.838-1.92m0 0V14.23L29.01 1.843l-18.805.001c-.946 0-1.838.933-1.838 1.92v40.2"/><path d="M29.01 1.844L41.385 14.23H30.907c-.927 0-1.898-.981-1.898-1.908zm0 0" stroke-linecap="round" stroke-linejoin="round"/></g></svg>