<svg xmlns="http://www.w3.org/2000/svg" width="48" height="48"><path d="M8.407 44.522c0 .932.947 1.92 1.84 1.92h29.351c.893 0 1.84-.988 1.84-1.92" fill="none" stroke="#616161" opacity=".25" stroke-width=".688"/><g fill="#00FE7F"><path d="M28.254 15.627a6.817 6.817 0 0 0-6.82 6.816c0 1.023.232 1.99.636 2.859l-1.166 1.38-.101 1.295c-.01.01-1.273.05-1.273.05l-.647.468s.002 1.414-.003 1.395l-1.388.023-.587.67-.013 1.267s-1.198-.078-1.32.032l.002.003c-.766.706-1.282 1.21-1.282 1.21l.005 3.313.65-.003 8.831-8.83a6.838 6.838 0 0 0 2.028 1.213 6.734 6.734 0 0 0 2.45.468 6.816 6.816 0 0 0-.002-13.629zm1.303 3.246a2.275 2.275 0 1 1-.003 4.548 2.275 2.275 0 0 1 .003-4.548z"/><path d="M29.557 18.873zm0 1.3a.974.974 0 1 1-.001 1.947.974.974 0 0 1 0-1.947zm-5.779 7.401l-8.836 8.836h3.248l7.714-7.576a6.84 6.84 0 0 1-2.126-1.261z" opacity=".5"/></g><g fill="none" stroke="#616161" stroke-width=".688"><path d="M8.367 43.963c0 .933.946 1.92 1.838 1.92h29.353c.892 0 1.838-.987 1.838-1.92m0 0V14.23L29.01 1.843l-18.805.001c-.946 0-1.838.933-1.838 1.92v40.2"/><path d="M29.01 1.844L41.385 14.23H30.907c-.927 0-1.898-.981-1.898-1.908zm0 0" stroke-linecap="round" stroke-linejoin="round"/></g></svg>