<svg xmlns="http://www.w3.org/2000/svg" width="48" height="48"><path d="M8.407 44.522c0 .932.947 1.92 1.84 1.92h29.351c.893 0 1.84-.988 1.84-1.92" fill="none" stroke="#616161" opacity=".25" stroke-width=".688"/><path d="M35.1 18.2l-12.132.008L18.85 30.55 16.034 26H14.3v1.3h1.3l3.25 6.5 5.123-14.3H35.1zm-6.5 3.9a5.2 5.2 0 1 0 0 10.4 5.2 5.2 0 0 0 3.9-1.77v1.77h1.3V22.1h-1.3v1.77a5.2 5.2 0 0 0-3.9-1.77zm0 1.3a3.9 3.9 0 1 1 0 7.8 3.9 3.9 0 0 1 0-7.8z" color="#7F8080" fill="#7F8080"/><g fill="none" stroke="#616161" stroke-width=".688"><path d="M8.367 43.963c0 .933.946 1.92 1.838 1.92h29.353c.892 0 1.838-.987 1.838-1.92m0 0V14.23L29.01 1.843l-18.805.001c-.946 0-1.838.933-1.838 1.92v40.2"/><path d="M29.01 1.844L41.385 14.23H30.907c-.927 0-1.898-.981-1.898-1.908zm0 0" stroke-linecap="round" stroke-linejoin="round"/></g></svg>