<svg xmlns="http://www.w3.org/2000/svg" width="48" height="48"><path d="M8.407 44.522c0 .932.947 1.92 1.84 1.92h29.351c.893 0 1.84-.988 1.84-1.92" fill="none" stroke="#616161" opacity=".25" stroke-width=".688"/><path d="M31.85 14.3l-3.9 3.9h-7.215a3.25 3.25 0 0 0-3.185-2.6 3.25 3.25 0 0 0-3.25 3.25 3.25 3.25 0 0 0 2.6 3.179V33.8h3.9v2.6h6.5v-2.6h5.2V22.75l3.9-3.9-4.55-4.55zm0 1.82l2.73 2.73-2.73 2.73-2.73-2.73 2.73-2.73zm-14.3.78a1.95 1.95 0 0 1 1.95 1.95 1.95 1.95 0 0 1-1.95 1.95 1.95 1.95 0 0 1-1.95-1.95 1.95 1.95 0 0 1 1.95-1.95zm3.179 2.6h7.221l3.25 3.25v9.75h-3.9v-2.6h-6.5v2.6h-2.6V22.035a3.25 3.25 0 0 0 2.528-2.535zM22.1 31.2H26v3.9h-3.9v-3.9z" fill="#007FFF"/><g fill="none" stroke="#616161" stroke-width=".688"><path d="M8.367 43.963c0 .933.946 1.92 1.838 1.92h29.353c.892 0 1.838-.987 1.838-1.92m0 0V14.23L29.01 1.843l-18.805.001c-.946 0-1.838.933-1.838 1.92v40.2"/><path d="M29.01 1.844L41.385 14.23H30.907c-.927 0-1.898-.981-1.898-1.908zm0 0" stroke-linecap="round" stroke-linejoin="round"/></g></svg>