<svg xmlns="http://www.w3.org/2000/svg" width="48" height="48"><path d="M8.407 44.522c0 .932.947 1.92 1.84 1.92h29.351c.893 0 1.84-.988 1.84-1.92" fill="none" stroke="#616161" opacity=".25" stroke-width=".688"/><path d="M14.461 15.601c-.052 0-.09 0-.117.03-.832.785 10.515 10.643 10.515 10.643l4.25 3.829c-1.37 3.026 2.927 3.076 3.854 4.61.408.673-.089 1.587-.828 1.635 1.471.459 3.453-2.215 2.856-3.725-.71-1.801-1.431-2.583-2.782-3.13-.56-.227-1.979-.246-2.474.02l-3.94-4.123s-9.723-9.657-11.334-9.79m1.793 9.57c-.377 0-.493.517-.493 1.223.072 1.393 1.004 5.462 5.633 8.426 3.899 2.496 11.032 1.594 10.916.177-1.569-1.843-4.192-.694-4.227-5.109-1.525.017-3.168-.215-3.107.394.256 2.547-4.01.711-5.663-1.885-1.66-2.382-2.575-3.225-3.06-3.224m6.08 3.14c-.254 0-.457.079-.554.237-.192.315.12.828.7 1.144.578.317 1.203.317 1.396.003.192-.316-.121-.83-.7-1.144-.29-.157-.842.001-.842-.238" fill="#7F8080"/><g fill="none" stroke="#616161" stroke-width=".688"><path d="M8.367 43.963c0 .933.946 1.92 1.838 1.92h29.353c.892 0 1.838-.987 1.838-1.92m0 0V14.23L29.01 1.843l-18.805.001c-.946 0-1.838.933-1.838 1.92v40.2"/><path d="M29.01 1.844L41.385 14.23H30.907c-.927 0-1.898-.981-1.898-1.908zm0 0" stroke-linecap="round" stroke-linejoin="round"/></g></svg>