<svg xmlns="http://www.w3.org/2000/svg" width="48" height="48"><path d="M8.407 44.522c0 .932.947 1.92 1.84 1.92h29.351c.893 0 1.84-.988 1.84-1.92" fill="none" stroke="#616161" opacity=".25" stroke-width=".688"/><path style="line-height:normal;text-indent:0;text-align:start;text-decoration-line:none;text-decoration-style:solid;text-decoration-color:#7f8080;text-transform:none;block-progression:tb;white-space:normal;isolation:auto;mix-blend-mode:normal;solid-color:#7f8080;solid-opacity:1" d="M28.6 14.3l-5.2 5.2H26v1.3h-7.8v11.7h-2.6l5.2 5.2 5.2-5.2h-2.6v-1.3h7.8V19.5h2.6l-5.2-5.2zm0 1.838l2.062 2.062H29.9v11.7h-6.5v-1.3h3.9V18.2h-.762l2.062-2.062zM19.5 22.1H26v1.3h-3.9v10.4h.762L20.8 35.862 18.738 33.8h.762V22.1zm3.9 2.6H26v2.6h-2.6v-2.6z" color="#7F8080" font-weight="400" font-family="sans-serif" overflow="visible" fill="#007FFF" fill-rule="evenodd"/><g fill="none" stroke="#616161" stroke-width=".688"><path d="M8.367 43.963c0 .933.946 1.92 1.838 1.92h29.353c.892 0 1.838-.987 1.838-1.92m0 0V14.23L29.01 1.843l-18.805.001c-.946 0-1.838.933-1.838 1.92v40.2"/><path d="M29.01 1.844L41.385 14.23H30.907c-.927 0-1.898-.981-1.898-1.908zm0 0" stroke-linecap="round" stroke-linejoin="round"/></g></svg>