<svg xmlns="http://www.w3.org/2000/svg" width="48" height="48"><path d="M8.407 44.522c0 .932.947 1.92 1.84 1.92h29.351c.893 0 1.84-.988 1.84-1.92" fill="none" stroke="#616161" opacity=".25" stroke-width=".688"/><path d="M33.8 36.396l-6.09.004-4.149-6.25s-.668-1.17-1.079-1.51c-.342-.283-.489-.384-.827-.384h-.77v8.136l-5.285.002V15.6h11.509s4.664.876 4.758 5.585c.107 5.248-4.507 6.791-4.507 6.791.633.264 5.721 7.203 6.44 8.416M24.674 20.11l-3.736-.002v3.536h3.737s1.732-.006 1.732-1.799c0-1.829-1.732-1.734-1.732-1.734" fill="#00BFFE" fill-rule="evenodd"/><g fill="none" stroke="#616161" stroke-width=".688"><path d="M8.367 43.963c0 .933.946 1.92 1.838 1.92h29.353c.892 0 1.838-.987 1.838-1.92m0 0V14.23L29.01 1.843l-18.805.001c-.946 0-1.838.933-1.838 1.92v40.2"/><path d="M29.01 1.844L41.385 14.23H30.907c-.927 0-1.898-.981-1.898-1.908zm0 0" stroke-linecap="round" stroke-linejoin="round"/></g></svg>