<svg xmlns="http://www.w3.org/2000/svg" width="48" height="48"><path d="M8.407 44.522c0 .932.947 1.92 1.84 1.92h29.351c.893 0 1.84-.988 1.84-1.92" fill="none" stroke="#616161" opacity=".25" stroke-width=".688"/><path d="M24.7 15.6c-1.265 4.426-4.36 8.232-5.725 11.279A6.445 6.445 0 0 0 18.2 29.9c0 3.601 2.899 6.5 6.5 6.5s6.5-2.899 6.5-6.5c0-1.099-.296-2.115-.775-3.021-1.365-3.047-4.46-6.853-5.725-11.279zm2.968 10.032A5.18 5.18 0 0 1 29.9 29.9c0 2.88-2.32 5.2-5.2 5.2a5.18 5.18 0 0 1-4.268-2.232 5.177 5.177 0 0 0 2.968.932c2.88 0 5.2-2.32 5.2-5.2a5.177 5.177 0 0 0-.932-2.968z" class="ColorScheme-Text" fill="#00FFFE"/><g fill="none" stroke="#616161" stroke-width=".688"><path d="M8.367 43.963c0 .933.946 1.92 1.838 1.92h29.353c.892 0 1.838-.987 1.838-1.92m0 0V14.23L29.01 1.843l-18.805.001c-.946 0-1.838.933-1.838 1.92v40.2"/><path d="M29.01 1.844L41.385 14.23H30.907c-.927 0-1.898-.981-1.898-1.908zm0 0" stroke-linecap="round" stroke-linejoin="round"/></g></svg>