<svg xmlns="http://www.w3.org/2000/svg" width="48" height="48"><path d="M8.407 44.522c0 .932.947 1.92 1.84 1.92h29.351c.893 0 1.84-.988 1.84-1.92" fill="none" stroke="#616161" opacity=".25" stroke-width=".688"/><path d="M16.9 15.6v6.5h-2.6v10.4h5.2v3.9h10.4v-3.9h5.2V22.1h-2.6v-6.5H16.9zm1.3 1.3h13v5.2h-1.3v-1.3H19.5v1.3h-1.3v-5.2zm1.3 1.3v1.3h10.4v-1.3H19.5zm-3.9 5.2h18.2v7.8h-2.6v-2.6h-13v2.6h-2.6v-7.8zm13 1.3V26h3.9v-1.3h-3.9zm-7.8 7.8h7.8v2.6h-7.8v-2.6z" fill="#FE003F"/><g fill="none" stroke="#616161" stroke-width=".688"><path d="M8.367 43.963c0 .933.946 1.92 1.838 1.92h29.353c.892 0 1.838-.987 1.838-1.92m0 0V14.23L29.01 1.843l-18.805.001c-.946 0-1.838.933-1.838 1.92v40.2"/><path d="M29.01 1.844L41.385 14.23H30.907c-.927 0-1.898-.981-1.898-1.908zm0 0" stroke-linecap="round" stroke-linejoin="round"/></g></svg>