<svg xmlns="http://www.w3.org/2000/svg" width="48" height="48"><path d="M8.407 44.522c0 .932.947 1.92 1.84 1.92h29.351c.893 0 1.84-.988 1.84-1.92" fill="none" stroke="#616161" opacity=".25" stroke-width=".688"/><path d="M17.53 15.6c-.282.017-.583 0-.915.229-2.956 1.272-.973 4.76 2.795 7.416.022-.499.23-1.59.225-2.068-3.215-2.204-5.095-4.35-3.046-5.2 2.16-.897 2.83 1.55 2.868 5.104.202.208 1.595 1.133 1.807 1.28-.078-3.24-1.8-6.546-3.455-6.734-.089-.018-.186-.018-.28-.018m3.011 5.637l-.673-.261-.558.375-.112 1.182.705.54.292.392c2.167 1.438 4.015 2.547 6.446 3.462l1.514.225h.998c.92-.542.371-.75 3.712-1.167l-3.765.29c-2.903-1.125-5.865-2.742-8.562-4.505m6.627 4.715c.435 0 3.832-.294 5.183-.42 1.337-.208 2.98-.27 2.67 1.294.353-.835-.453-2.25-1.6-2.5-1.772-.397-4.586.689-5.597 1.024m1.63.433c-.528.208-1.731.359-2.3.546.805.417 4.856 1.912 6.528 1.599.266 0 1.396-.811 1.423-1.395-.087 1.064-5.037.272-5.65-.77m1.1.019c-.433-.208-2.463-.2-2.912-.366-2.545.89-5.967 2.979-8.416 4.388l-.708.208c-.138.975-.737 1.309-1.285 1.94l.83.834.648-1.063c2.868-1.73 8.536-4.527 11.842-5.869m-11.843 5.869c-.351.208-.685.416-1.002.624-.736 2.087-1.593 3.493-2.412 3.432 1.265.604 3.989-2.374 4.906-5.176m-4.906 5.176c-1.928-1.147 2.154-3.236 3.068-3.843.207-.584-.357-1.55-.174-2.239-2.878 1.794-4.581 4.388-3.614 5.616.231.293.477.438.723.46m2.801-4.369c.134-.537 1.913-1.759 2.234-1.946.43-3.388.45-3.722.816-6.356-.218-.208-1.564-1.257-1.772-1.402-.258 2.814-.743 6.627-1.43 9.175" fill="#FE003F"/><g fill="none" stroke="#616161" stroke-width=".688"><path d="M8.367 43.963c0 .933.946 1.92 1.838 1.92h29.353c.892 0 1.838-.987 1.838-1.92m0 0V14.23L29.01 1.843l-18.805.001c-.946 0-1.838.933-1.838 1.92v40.2"/><path d="M29.01 1.844L41.385 14.23H30.907c-.927 0-1.898-.981-1.898-1.908zm0 0" stroke-linecap="round" stroke-linejoin="round"/></g></svg>