<svg xmlns="http://www.w3.org/2000/svg" width="48" height="48"><path d="M8.407 44.522c0 .932.947 1.92 1.84 1.92h29.351c.893 0 1.84-.988 1.84-1.92" fill="none" stroke="#616161" opacity=".25" stroke-width=".688"/><path d="M24.7 15.6a5.19 5.19 0 0 0-5.2 5.2v1.3h1.3v-.65c0-2.52 1.74-4.55 3.9-4.55s3.9 2.03 3.9 4.55V26H16.9v10.4h15.6V26h-2.6v-5.2c0-2.88-2.32-5.2-5.2-5.2zm-6.5 11.7h13v7.8h-13v-7.8z" fill="#FFBF00"/><g fill="none" stroke="#616161" stroke-width=".688"><path d="M8.367 43.963c0 .933.946 1.92 1.838 1.92h29.353c.892 0 1.838-.987 1.838-1.92m0 0V14.23L29.01 1.843l-18.805.001c-.946 0-1.838.933-1.838 1.92v40.2"/><path d="M29.01 1.844L41.385 14.23H30.907c-.927 0-1.898-.981-1.898-1.908zm0 0" stroke-linecap="round" stroke-linejoin="round"/></g></svg>