<svg xmlns="http://www.w3.org/2000/svg" width="48" height="48"><path d="M8.407 44.522c0 .932.947 1.92 1.84 1.92h29.351c.893 0 1.84-.988 1.84-1.92" fill="none" stroke="#616161" opacity=".25" stroke-width=".688"/><path d="M16.034 15.6a1.73 1.73 0 0 0-1.734 1.734v17.332c0 .96.773 1.734 1.734 1.734h17.332a1.73 1.73 0 0 0 1.734-1.734V17.334a1.73 1.73 0 0 0-1.734-1.734H16.034zm-.434 1.3h18.2v18.2H15.6V16.9zM26 18.2v6.5h6.5a6.5 6.5 0 0 0-6.5-6.5zm-1.3 1.3a6.5 6.5 0 0 0-6.5 6.5 6.5 6.5 0 0 0 6.5 6.5 6.5 6.5 0 0 0 6.5-6.5h-6.5v-6.5zm-1.3 1.469V27.3h6.327a5.2 5.2 0 0 1-5.027 3.9 5.2 5.2 0 0 1-5.2-5.2 5.2 5.2 0 0 1 3.9-5.031z" color="#7F8080" fill="#7F8080"/><g fill="none" stroke="#616161" stroke-width=".688"><path d="M8.367 43.963c0 .933.946 1.92 1.838 1.92h29.353c.892 0 1.838-.987 1.838-1.92m0 0V14.23L29.01 1.843l-18.805.001c-.946 0-1.838.933-1.838 1.92v40.2"/><path d="M29.01 1.844L41.385 14.23H30.907c-.927 0-1.898-.981-1.898-1.908zm0 0" stroke-linecap="round" stroke-linejoin="round"/></g></svg>