<svg xmlns="http://www.w3.org/2000/svg" width="48" height="48"><path d="M8.407 44.522c0 .932.947 1.92 1.84 1.92h29.351c.893 0 1.84-.988 1.84-1.92" fill="none" stroke="#616161" opacity=".25" stroke-width=".688"/><path d="M27.44 22.612a4.93 4.93 0 0 0 .045-.624c0-.21-.019-.42-.045-.624l1.355-1.06a.32.32 0 0 0 .077-.41l-1.282-2.22a.317.317 0 0 0-.39-.137l-1.595.644a4.86 4.86 0 0 0-1.082-.631l-.24-1.696a.329.329 0 0 0-.32-.27H21.4a.324.324 0 0 0-.318.27l-.24 1.696c-.39.164-.751.374-1.082.63l-1.595-.643a.32.32 0 0 0-.39.138l-1.282 2.219a.321.321 0 0 0 .078.41l1.351 1.06a4.947 4.947 0 0 0-.044.624c0 .212.018.42.044.624l-1.352 1.061a.32.32 0 0 0-.077.41l1.282 2.219c.08.137.247.195.39.137l1.595-.643c.33.252.692.468 1.082.63l.24 1.698a.325.325 0 0 0 .318.27h2.56a.324.324 0 0 0 .318-.27l.24-1.698a4.71 4.71 0 0 0 1.083-.63l1.594.643a.32.32 0 0 0 .391-.137l1.28-2.22a.321.321 0 0 0-.076-.409l-1.352-1.06zm-4.758 1.617a2.24 2.24 0 0 1-2.242-2.24 2.242 2.242 0 1 1 4.484 0 2.24 2.24 0 0 1-2.243 2.24zm8.423 9.701a3.67 3.67 0 0 0 .248-.385c.075-.136.136-.277.19-.417l1.243-.207a.234.234 0 0 0 .192-.235l-.044-1.876a.231.231 0 0 0-.203-.226l-1.25-.146a3.558 3.558 0 0 0-.475-.784l.442-1.175a.24.24 0 0 0-.111-.286l-1.648-.897a.237.237 0 0 0-.299.061l-.748 1.006a3.471 3.471 0 0 0-.917.026l-.8-.973a.234.234 0 0 0-.298-.048l-1.602.976a.234.234 0 0 0-.095.291l.498 1.154a3.674 3.674 0 0 0-.248.387 3.683 3.683 0 0 0-.19.416l-1.24.208a.234.234 0 0 0-.194.236l.046 1.876a.23.23 0 0 0 .201.225l1.252.146c.122.278.28.543.473.785l-.44 1.175a.237.237 0 0 0 .109.283l1.647.9a.236.236 0 0 0 .297-.062l.75-1.007c.309.032.615.024.917-.026l.8.973a.234.234 0 0 0 .299.05l1.601-.978a.234.234 0 0 0 .094-.29l-.497-1.156zm-3.624-.63a1.641 1.641 0 1 1 1.573-2.88 1.641 1.641 0 1 1-1.573 2.88z" fill="#7F8080"/><g fill="none" stroke="#616161" stroke-width=".688"><path d="M8.367 43.963c0 .933.946 1.92 1.838 1.92h29.353c.892 0 1.838-.987 1.838-1.92m0 0V14.23L29.01 1.843l-18.805.001c-.946 0-1.838.933-1.838 1.92v40.2"/><path d="M29.01 1.844L41.385 14.23H30.907c-.927 0-1.898-.981-1.898-1.908zm0 0" stroke-linecap="round" stroke-linejoin="round"/></g></svg>