<svg xmlns="http://www.w3.org/2000/svg" width="48" height="48"><path d="M8.407 44.522c0 .932.947 1.92 1.84 1.92h29.351c.893 0 1.84-.988 1.84-1.92" fill="none" stroke="#616161" opacity=".25" stroke-width=".688"/><path d="M21.45 15.6v2.6h1.3v-2.6h-1.3zm5.2 0v2.6h1.3v-2.6h-1.3zm-10.322 1.404l-1.04.783 1.56 2.08 1.04-.78-1.56-2.083zm16.744 0l-1.56 2.083 1.04.78 1.56-2.08-1.04-.783zM19.5 19.5l-5.2 3.9 10.4 13 10.4-13-5.2-3.9H19.5zm.434 1.3h4.116v1.95h-6.716l2.6-1.95zm5.416 0h4.116l2.6 1.95H25.35V20.8zm-8.866 3.25h7.566v9.458l-7.566-9.458zm8.866 0h7.566l-7.566 9.458V24.05z" fill="#7F8080" color="#7F8080" fill-rule="evenodd"/><g fill="none" stroke="#616161" stroke-width=".688"><path d="M8.367 43.963c0 .933.946 1.92 1.838 1.92h29.353c.892 0 1.838-.987 1.838-1.92m0 0V14.23L29.01 1.843l-18.805.001c-.946 0-1.838.933-1.838 1.92v40.2"/><path d="M29.01 1.844L41.385 14.23H30.907c-.927 0-1.898-.981-1.898-1.908zm0 0" stroke-linecap="round" stroke-linejoin="round"/></g></svg>