<svg xmlns="http://www.w3.org/2000/svg" width="48" height="48"><path d="M8.407 44.522c0 .932.947 1.92 1.84 1.92h29.351c.893 0 1.84-.988 1.84-1.92" fill="none" stroke="#616161" opacity=".25" stroke-width=".688"/><path d="M14.3 15.6v1.3h20.8v-1.3H14.3zm7.8 3.466v1.332l5.573 7.336-5.573 6.668V36.4h13v-5.2h-.733c0 .962.001 1.945-.844 2.522-.925.632-2.146.751-3.219.751h-5.109l4.95-6.739-4.95-7.706h2.91c2.064 0 5.002-.186 5.82 2.227.139.412.231 2.012.266 2.445h.909v-5.634h-13zM14.3 20.8v1.3h6.5v-1.3h-6.5zm0 3.9V26h9.1v-1.3h-9.1zm0 3.9v1.3h9.1v-1.3h-9.1zm0 3.9v1.3h6.5v-1.3h-6.5z" fill="#00BFFE"/><g fill="none" stroke="#616161" stroke-width=".688"><path d="M8.367 43.963c0 .933.946 1.92 1.838 1.92h29.353c.892 0 1.838-.987 1.838-1.92m0 0V14.23L29.01 1.843l-18.805.001c-.946 0-1.838.933-1.838 1.92v40.2"/><path d="M29.01 1.844L41.385 14.23H30.907c-.927 0-1.898-.981-1.898-1.908zm0 0" stroke-linecap="round" stroke-linejoin="round"/></g></svg>