<svg xmlns="http://www.w3.org/2000/svg" width="48" height="48"><path d="M8.407 44.522c0 .932.947 1.92 1.84 1.92h29.351c.893 0 1.84-.988 1.84-1.92" fill="none" stroke="#616161" opacity=".25" stroke-width=".688"/><path d="M14.3 15.6v2.6a18.2 18.2 0 0 1 18.2 18.2h2.6a20.8 20.8 0 0 0-20.8-20.8zm0 6.5v2.6A11.7 11.7 0 0 1 26 36.4h2.6a14.3 14.3 0 0 0-14.3-14.3zm3.25 7.8a3.25 3.25 0 0 0-3.25 3.25 3.25 3.25 0 0 0 3.25 3.25 3.25 3.25 0 0 0 3.25-3.25 3.25 3.25 0 0 0-3.25-3.25z" fill="#FF7F00"/><g fill="none" stroke="#616161" stroke-width=".688"><path d="M8.367 43.963c0 .933.946 1.92 1.838 1.92h29.353c.892 0 1.838-.987 1.838-1.92m0 0V14.23L29.01 1.843l-18.805.001c-.946 0-1.838.933-1.838 1.92v40.2"/><path d="M29.01 1.844L41.385 14.23H30.907c-.927 0-1.898-.981-1.898-1.908zm0 0" stroke-linecap="round" stroke-linejoin="round"/></g></svg>