<svg xmlns="http://www.w3.org/2000/svg" width="48" height="48"><path d="M8.407 44.522c0 .932.947 1.92 1.84 1.92h29.351c.893 0 1.84-.988 1.84-1.92" fill="none" stroke="#616161" opacity=".25" stroke-width=".688"/><path d="M26.221 29.427l-2.553-2.522.03-.03a17.607 17.607 0 0 0 3.73-6.563h2.944v-2.01h-7.037v-2.01h-2.008v2.01H14.29v2h11.227a15.791 15.791 0 0 1-3.187 5.387 15.724 15.724 0 0 1-2.321-3.367H18a17.65 17.65 0 0 0 2.995 4.583l-5.115 5.044 1.427 1.429 5.024-5.026 3.126 3.126.764-2.051zm5.658-5.096h-2.01l-4.523 12.061h2.01l1.126-3.016h4.773l1.136 3.016h2.01l-4.522-12.06zm-2.633 7.035l1.628-4.35 1.629 4.35h-3.257z" fill="#7F8080"/><g fill="none" stroke="#616161" stroke-width=".688"><path d="M8.367 43.963c0 .933.946 1.92 1.838 1.92h29.353c.892 0 1.838-.987 1.838-1.92m0 0V14.23L29.01 1.843l-18.805.001c-.946 0-1.838.933-1.838 1.92v40.2"/><path d="M29.01 1.844L41.385 14.23H30.907c-.927 0-1.898-.981-1.898-1.908zm0 0" stroke-linecap="round" stroke-linejoin="round"/></g></svg>