<svg xmlns="http://www.w3.org/2000/svg" width="48" height="48"><path d="M8.407 44.522c0 .932.947 1.92 1.84 1.92h29.351c.893 0 1.84-.988 1.84-1.92" fill="none" stroke="#616161" opacity=".25" stroke-width=".688"/><g fill="#FFBF00"><path d="M22.966 15.6a3.458 3.458 0 0 0-3.466 3.466h5.2V20.8h-6.934a3.458 3.458 0 0 0-3.466 3.466v3.468a3.458 3.458 0 0 0 3.466 3.466v-1.734A5.161 5.161 0 0 1 19.5 25.61l.003-.005a5.39 5.39 0 0 1 .738-.554c.003 0 .005-.004.008-.005a5.317 5.317 0 0 1 .815-.41c.052-.021.108-.033.16-.053a5.044 5.044 0 0 1 .747-.22c.323-.062.654-.098.995-.098H29.9v-5.2a3.458 3.458 0 0 0-3.466-3.466zm0 .866a.868.868 0 1 1 .001 1.735.868.868 0 0 1-.001-1.735z"/><path d="M31.2 26l-2.6 2.6.92.92 1.68-1.682V35.1h-2.6v1.3h6.5v-1.3h-2.6V26zm-7.15 0c-.914 0-1.813.467-2.384 1.353-.57.887-.866 2.145-.866 3.847 0 1.703.295 2.96.866 3.847.57.886 1.469 1.353 2.384 1.353s1.814-.467 2.384-1.353c.57-.887.866-2.145.866-3.847 0-1.703-.295-2.96-.866-3.847-.57-.886-1.469-1.353-2.384-1.353zm0 1.3c.521 0 .923.183 1.292.76.11.168.206.387.295.634l-3.489 3.489a10.417 10.417 0 0 1-.048-.983c0-1.547.286-2.565.658-3.14.37-.577.77-.76 1.292-.76zm1.902 2.917c.029.303.048.624.048.983 0 1.547-.286 2.565-.658 3.14-.37.577-.77.76-1.292.76s-.923-.183-1.292-.76a3.224 3.224 0 0 1-.295-.634z"/></g><g fill="none" stroke="#616161" stroke-width=".688"><path d="M8.367 43.963c0 .933.946 1.92 1.838 1.92h29.353c.892 0 1.838-.987 1.838-1.92m0 0V14.23L29.01 1.843l-18.805.001c-.946 0-1.838.933-1.838 1.92v40.2"/><path d="M29.01 1.844L41.385 14.23H30.907c-.927 0-1.898-.981-1.898-1.908zm0 0" stroke-linecap="round" stroke-linejoin="round"/></g></svg>