<svg xmlns="http://www.w3.org/2000/svg" width="48" height="48"><path d="M8.407 44.522c0 .932.947 1.92 1.84 1.92h29.351c.893 0 1.84-.988 1.84-1.92" fill="none" stroke="#616161" opacity=".25" stroke-width=".688"/><path d="M14.3 15.6v18.2h20.8V15.6H14.3zm1.3 1.3h18.2v15.6H15.6V16.9zm1.3 1.3v5.2h2.6l2.6-2.6v-2.6h-5.2zm11.05 1.3a4.54 4.54 0 0 0-4.55 4.55c0 2.52 2.03 4.55 4.55 4.55s4.55-2.03 4.55-4.55-2.03-4.55-4.55-4.55zm0 1.3c1.8 0 3.25 1.45 3.25 3.25s-1.45 3.25-3.25 3.25a3.244 3.244 0 0 1-3.25-3.25c0-1.8 1.45-3.25 3.25-3.25zm-5.85 1.3l-1.3 1.3h1.3v-1.3zm5.2 0v2.6h2.6v-1.3h-1.3v-1.3h-1.3zm-10.4 5.2v2.6h2.6l1.3 1.3v-1.3h.307v-2.6H16.9zm-2.6 7.8v1.3h20.8v-1.3H14.3z" fill="#7F8080"/><g fill="none" stroke="#616161" stroke-width=".688"><path d="M8.367 43.963c0 .933.946 1.92 1.838 1.92h29.353c.892 0 1.838-.987 1.838-1.92m0 0V14.23L29.01 1.843l-18.805.001c-.946 0-1.838.933-1.838 1.92v40.2"/><path d="M29.01 1.844L41.385 14.23H30.907c-.927 0-1.898-.981-1.898-1.908zm0 0" stroke-linecap="round" stroke-linejoin="round"/></g></svg>