<svg xmlns="http://www.w3.org/2000/svg" width="48" height="48"><path d="M8.407 44.522c0 .932.947 1.92 1.84 1.92h29.351c.893 0 1.84-.988 1.84-1.92" fill="none" stroke="#616161" opacity=".25" stroke-width=".688"/><g fill="#FE003F" stroke-width="2"><path d="M24.7 15.6A10.4 10.4 0 0 0 14.3 26a10.4 10.4 0 0 0 10.4 10.4A10.4 10.4 0 0 0 35.1 26a10.4 10.4 0 0 0-10.4-10.4zm0 1.3a9.1 9.1 0 0 1 9.1 9.1 9.1 9.1 0 0 1-9.1 9.1 9.1 9.1 0 0 1-9.1-9.1 9.1 9.1 0 0 1 9.1-9.1z"/><path d="M24.7 19.5a6.5 6.5 0 0 0-4.313 1.648l.921.922A5.2 5.2 0 0 1 24.7 20.8a5.2 5.2 0 0 1 5.2 5.2h1.3a6.5 6.5 0 0 0-6.5-6.5zm-5.882 3.756A6.5 6.5 0 0 0 18.2 26h1.3a5.2 5.2 0 0 1 .31-1.752l-.992-.992z"/><path d="M26.447 22.316l-2.79 6.47a1.56 1.56 0 0 0-.361.76l-.01.019h.009c-.117.73.287 1.411.934 1.575.65.164 1.328-.247 1.57-.945l.01.003v-.04l.031-.097a1.6 1.6 0 0 0 .01-.715z"/></g><g fill="none" stroke="#616161" stroke-width=".688"><path d="M8.367 43.963c0 .933.946 1.92 1.838 1.92h29.353c.892 0 1.838-.987 1.838-1.92m0 0V14.23L29.01 1.843l-18.805.001c-.946 0-1.838.933-1.838 1.92v40.2"/><path d="M29.01 1.844L41.385 14.23H30.907c-.927 0-1.898-.981-1.898-1.908zm0 0" stroke-linecap="round" stroke-linejoin="round"/></g></svg>