<svg xmlns="http://www.w3.org/2000/svg" width="48" height="48"><path d="M8.407 44.522c0 .932.947 1.92 1.84 1.92h29.351c.893 0 1.84-.988 1.84-1.92" fill="none" stroke="#616161" opacity=".25" stroke-width=".688"/><path d="M16.9 15.6c-.72 0-1.3.58-1.3 1.3v18.2c0 .72.58 1.3 1.3 1.3h15.6c.72 0 1.3-.58 1.3-1.3V16.9c0-.72-.58-1.3-1.3-1.3H16.9zm0 1.3h15.6v18.2H16.9V16.9zm1.3 2.6v1.3h13v-1.3h-13zm0 3.9v1.3h13v-1.3h-13zm0 3.9v1.3h13v-1.3h-13zm0 3.9v1.3h13v-1.3h-13z" fill="#007FFF"/><g fill="none" stroke="#616161" stroke-width=".688"><path d="M8.367 43.963c0 .933.946 1.92 1.838 1.92h29.353c.892 0 1.838-.987 1.838-1.92m0 0V14.23L29.01 1.843l-18.805.001c-.946 0-1.838.933-1.838 1.92v40.2"/><path d="M29.01 1.844L41.385 14.23H30.907c-.927 0-1.898-.981-1.898-1.908zm0 0" stroke-linecap="round" stroke-linejoin="round"/></g></svg>