<svg xmlns="http://www.w3.org/2000/svg" width="48" height="48"><path d="M8.407 44.522c0 .932.947 1.92 1.84 1.92h29.351c.893 0 1.84-.988 1.84-1.92" fill="none" stroke="#616161" opacity=".25" stroke-width=".688"/><g fill="#00BFFE"><path d="M25.368 17.922a.663.663 0 0 1-.667.663.664.664 0 0 1-.668-.663v-1.633c0-.368.3-.664.668-.664.37 0 .667.296.667.664v1.634zm-.102 11.555a.548.548 0 0 1-.55.546h-.03a.549.549 0 0 1-.55-.546v-1.765a.55.55 0 0 1 .55-.549h.03a.55.55 0 0 1 .55.55v1.764z"/><path d="M31.642 34.678a.788.788 0 0 0 .152-.883L26.27 22.082c-.004-.031-.004-.065-.004-.099a.481.481 0 0 1 .11-.304 2.704 2.704 0 0 0 1.084-2.166c0-1.5-1.222-2.713-2.73-2.716a2.707 2.707 0 0 0-2.733 2.717 2.7 2.7 0 0 0 1.082 2.165.465.465 0 0 1 .111.304c0 .034 0 .068-.004.1L17.66 33.796a.785.785 0 0 0 .151.882l-.87 1.769 1.377-1.491a.797.797 0 0 0 .922-.43l5.268-11.164a.263.263 0 0 1 .208-.1h.026a.26.26 0 0 1 .205.1l5.268 11.165a.793.793 0 0 0 .92.429l1.378 1.49-.871-1.768zM24.73 21.076a1.562 1.562 0 1 1 0-3.124c.867 0 1.568.7 1.568 1.561 0 .863-.702 1.563-1.568 1.563z"/><path d="M30.712 28.647a.358.358 0 0 1-.36.356H19.046a.359.359 0 0 1-.359-.356v-.003c0-.197.162-.356.36-.356h11.305a.36.36 0 0 1 .36.359z"/></g><g fill="none" stroke="#616161" stroke-width=".688"><path d="M8.367 43.963c0 .933.946 1.92 1.838 1.92h29.353c.892 0 1.838-.987 1.838-1.92m0 0V14.23L29.01 1.843l-18.805.001c-.946 0-1.838.933-1.838 1.92v40.2"/><path d="M29.01 1.844L41.385 14.23H30.907c-.927 0-1.898-.981-1.898-1.908zm0 0" stroke-linecap="round" stroke-linejoin="round"/></g></svg>