<svg xmlns="http://www.w3.org/2000/svg" width="48" height="48"><path d="M8.407 44.522c0 .932.947 1.92 1.84 1.92h29.351c.893 0 1.84-.988 1.84-1.92" fill="none" stroke="#616161" opacity=".25" stroke-width=".688"/><path style="isolation:auto;mix-blend-mode:normal;solid-color:#7f8080;solid-opacity:1" d="M13 15.6c-.72 0-1.3.58-1.3 1.3v18.2c0 .72.58 1.3 1.3 1.3h23.4c.72 0 1.3-.58 1.3-1.3V16.9c0-.72-.58-1.3-1.3-1.3zm1.3 1.3h20.8l-10.4 9.837zm-1.3.592l7.986 7.621L13 32.74zm23.4 0v15.245l-7.986-7.624zm-14.407 8.573l2.707 2.593 2.65-2.51 9.05 8.315v.637H13v-.714z" color="#7F8080" overflow="visible" fill="#007FFF"/><g fill="none" stroke="#616161" stroke-width=".688"><path d="M8.367 43.963c0 .933.946 1.92 1.838 1.92h29.353c.892 0 1.838-.987 1.838-1.92m0 0V14.23L29.01 1.843l-18.805.001c-.946 0-1.838.933-1.838 1.92v40.2"/><path d="M29.01 1.844L41.385 14.23H30.907c-.927 0-1.898-.981-1.898-1.908zm0 0" stroke-linecap="round" stroke-linejoin="round"/></g></svg>