<svg xmlns="http://www.w3.org/2000/svg" width="48" height="48"><path d="M8.407 44.522c0 .932.947 1.92 1.84 1.92h29.351c.893 0 1.84-.988 1.84-1.92" fill="none" stroke="#616161" opacity=".25" stroke-width=".688"/><path d="M14.3 16.25v19.5h20.8v-19.5H14.3zm1.3 1.3h1.3v1.3h-1.3v-1.3zm2.6 0h13v7.15h-13v-7.15zm14.3 0h1.3v1.3h-1.3v-1.3zm-16.9 3.9h1.3v1.3h-1.3v-1.3zm16.9 0h1.3v1.3h-1.3v-1.3zm-16.9 3.9h1.3v1.3h-1.3v-1.3zm16.9 0h1.3v1.3h-1.3v-1.3zM18.2 27.3h13v7.15h-13V27.3zm-2.6 1.95h1.3v1.3h-1.3v-1.3zm16.9 0h1.3v1.3h-1.3v-1.3zm-16.9 3.9h1.3v1.3h-1.3v-1.3zm16.9 0h1.3v1.3h-1.3v-1.3z" fill="#7F8080"/><g fill="none" stroke="#616161" stroke-width=".688"><path d="M8.367 43.963c0 .933.946 1.92 1.838 1.92h29.353c.892 0 1.838-.987 1.838-1.92m0 0V14.23L29.01 1.843l-18.805.001c-.946 0-1.838.933-1.838 1.92v40.2"/><path d="M29.01 1.844L41.385 14.23H30.907c-.927 0-1.898-.981-1.898-1.908zm0 0" stroke-linecap="round" stroke-linejoin="round"/></g></svg>