<svg xmlns="http://www.w3.org/2000/svg" width="48" height="48"><path d="M8.407 44.522c0 .932.947 1.92 1.84 1.92h29.351c.893 0 1.84-.988 1.84-1.92" fill="none" stroke="#616161" opacity=".25" stroke-width=".688"/><g fill="#007FFF"><path d="M24.7 15.6a10.4 3.9 0 0 0-10.4 3.9V26a10.4 3.9 0 0 0 9.1 3.865V32.5h-3.9v-1.3h-5.2v5.2h5.2v-1.3h10.4v1.3h5.2v-5.2h-5.2v1.3H26v-2.635A10.4 3.9 0 0 0 35.1 26v-1.3h-1.3V26a9.1 2.6 0 0 1-9.1 2.6 9.1 2.6 0 0 1-9.1-2.6v-4.614a10.4 3.9 0 0 0 9.1 2.014 10.4 3.9 0 0 0 3.9-.29v-1.264a9.1 2.6 0 0 1-3.9.254 9.1 2.6 0 0 1-9.1-2.6 9.1 2.6 0 0 1 9.1-2.6 9.1 2.6 0 0 1 3.9.253v-1.266a10.4 3.9 0 0 0-3.9-.287zm-9.1 16.9h2.6v2.6h-2.6v-2.6zm15.6 0h2.6v2.6h-2.6v-2.6z"/><path d="M29.9 15.6v3.9h1.3v-1.3h.65c1.08 0 1.95.87 1.95 1.95s-.87 1.95-1.95 1.95H29.9v1.3h1.95c1.8 0 3.25-1.45 3.25-3.25s-1.45-3.25-3.25-3.25h1.95v-1.3h-3.9z"/></g><g fill="none" stroke="#616161" stroke-width=".688"><path d="M8.367 43.963c0 .933.946 1.92 1.838 1.92h29.353c.892 0 1.838-.987 1.838-1.92m0 0V14.23L29.01 1.843l-18.805.001c-.946 0-1.838.933-1.838 1.92v40.2"/><path d="M29.01 1.844L41.385 14.23H30.907c-.927 0-1.898-.981-1.898-1.908zm0 0" stroke-linecap="round" stroke-linejoin="round"/></g></svg>