<svg xmlns="http://www.w3.org/2000/svg" width="48" height="48"><path d="M8.407 44.522c0 .932.947 1.92 1.84 1.92h29.351c.893 0 1.84-.988 1.84-1.92" fill="none" stroke="#616161" opacity=".25" stroke-width=".688"/><g fill="#7F8080"><path d="M14.3 15.6v20.8h20.8V15.6H14.3zm1.3 5.2h18.2v14.3H15.6V20.8z"/><path d="M25.305 30.108l-1.856-1.834.022-.022a12.796 12.796 0 0 0 2.711-4.77h2.14v-1.46h-5.113v-1.461h-1.461v1.46h-5.113v1.453h8.159a11.476 11.476 0 0 1-2.316 3.916 11.427 11.427 0 0 1-1.687-2.447h-1.46a12.82 12.82 0 0 0 2.177 3.33L17.79 31.94l1.038 1.037 3.652-3.653 2.27 2.272.556-1.49zm4.113-3.705h-1.461l-3.287 8.766h1.46l.819-2.192h3.47l.824 2.192h1.461l-3.285-8.766zm-1.914 5.113l1.183-3.162 1.183 3.162h-2.366z"/></g><g fill="none" stroke="#616161" stroke-width=".688"><path d="M8.367 43.963c0 .933.946 1.92 1.838 1.92h29.353c.892 0 1.838-.987 1.838-1.92m0 0V14.23L29.01 1.843l-18.805.001c-.946 0-1.838.933-1.838 1.92v40.2"/><path d="M29.01 1.844L41.385 14.23H30.907c-.927 0-1.898-.981-1.898-1.908zm0 0" stroke-linecap="round" stroke-linejoin="round"/></g></svg>