<svg xmlns="http://www.w3.org/2000/svg" width="48" height="48"><path d="M8.407 44.522c0 .932.947 1.92 1.84 1.92h29.351c.893 0 1.84-.988 1.84-1.92" fill="none" stroke="#616161" opacity=".25" stroke-width=".688"/><path style="isolation:auto;mix-blend-mode:normal;solid-color:#7f8080;solid-opacity:1;filter-blend-mode:normal;filter-gaussianBlur-deviation:0" d="M33.028 15.6c-1.519.022-7.75.657-10.244 9.402-2.262 7.926-6.732 7.193-6.737 7.196 0 0-.45-.032-.447-.036V36.4l.45-.003c.234-.046 7.026.79 10.088-8.274h5.496v-4.185h-3.69s1.07-4.073 5.422-4.147c0 0 .442-.005.434-.006V15.6h-.447v.008c-.008 0-.117-.01-.325-.008z" fill="#FE003F" color="#7F8080" overflow="visible"/><g fill="none" stroke="#616161" stroke-width=".688"><path d="M8.367 43.963c0 .933.946 1.92 1.838 1.92h29.353c.892 0 1.838-.987 1.838-1.92m0 0V14.23L29.01 1.843l-18.805.001c-.946 0-1.838.933-1.838 1.92v40.2"/><path d="M29.01 1.844L41.385 14.23H30.907c-.927 0-1.898-.981-1.898-1.908zm0 0" stroke-linecap="round" stroke-linejoin="round"/></g></svg>