<svg xmlns="http://www.w3.org/2000/svg" width="48" height="48"><path d="M8.407 44.522c0 .932.947 1.92 1.84 1.92h29.351c.893 0 1.84-.988 1.84-1.92" fill="none" stroke="#616161" opacity=".25" stroke-width=".688"/><path style="isolation:auto;mix-blend-mode:normal;solid-color:#7f8080;solid-opacity:1;marker:none" d="M14.3 18.2v16.9h20.8V18.2H14.3zm1.3 1.3h2.486a1.95 1.95 0 0 1 .114.65 1.95 1.95 0 0 1-1.95 1.95 1.95 1.95 0 0 1-.65-.114V19.5zm3.831 0H33.8v14.3H15.6v-1.018l3.024-2.99 1.83-1.824 2.036 1.844 1.43 1.388 4.68-4.417 3.9 3.757V28.6l-3.9-3.9-4.68 4.68L20.54 26l-4.94 4.94v-7.608a3.25 3.25 0 0 0 .65.068 3.25 3.25 0 0 0 3.25-3.25 3.25 3.25 0 0 0-.069-.65z" color="#7F8080" overflow="visible" fill="#7F8080"/><g fill="none" stroke="#616161" stroke-width=".688"><path d="M8.367 43.963c0 .933.946 1.92 1.838 1.92h29.353c.892 0 1.838-.987 1.838-1.92m0 0V14.23L29.01 1.843l-18.805.001c-.946 0-1.838.933-1.838 1.92v40.2"/><path d="M29.01 1.844L41.385 14.23H30.907c-.927 0-1.898-.981-1.898-1.908zm0 0" stroke-linecap="round" stroke-linejoin="round"/></g></svg>