<svg xmlns="http://www.w3.org/2000/svg" width="48" height="48"><path d="M8.407 44.522c0 .932.947 1.92 1.84 1.92h29.351c.893 0 1.84-.988 1.84-1.92" fill="none" stroke="#616161" opacity=".25" stroke-width=".688"/><path d="M23.4 15.6v3.9h3.9v-3.9h-3.9zm0 4.225l-3.9.975 1.071 1.071 2.829-.706v-1.34zm3.9.325v1.34l5.12 1.28L26 24.376v11.7l9.1-2.275V22.1l-7.8-1.95zm-10.573 1.343L14.3 22.1v11.7l10.4 2.6V24.7l-7.72-1.93.82-.203-1.073-1.074zM33.8 23.765v8.372l-6.5-1.625V25.39l6.5-1.625zm-6.5 8.085l5.123 1.28-5.123 1.282V31.85z" fill="#7F8080" fill-rule="evenodd"/><g fill="none" stroke="#616161" stroke-width=".688"><path d="M8.367 43.963c0 .933.946 1.92 1.838 1.92h29.353c.892 0 1.838-.987 1.838-1.92m0 0V14.23L29.01 1.843l-18.805.001c-.946 0-1.838.933-1.838 1.92v40.2"/><path d="M29.01 1.844L41.385 14.23H30.907c-.927 0-1.898-.981-1.898-1.908zm0 0" stroke-linecap="round" stroke-linejoin="round"/></g></svg>