<svg xmlns="http://www.w3.org/2000/svg" width="48" height="48"><path d="M8.407 44.522c0 .932.947 1.92 1.84 1.92h29.351c.893 0 1.84-.988 1.84-1.92" fill="none" stroke="#616161" opacity=".25" stroke-width=".688"/><path d="M14.3 15.6v15.6l-2.6 2.6h2.6v2.6h20.8v-2.6h2.6l-2.6-2.97V15.6H14.3zm1.3 1.3h18.2v12.444L28.6 23.4l-5.2 5.2-.65.65-.65-.65-2.6-2.6-3.9 3.9v-13zm3.9 1.3a2.6 2.6 0 0 0-2.6 2.6 2.6 2.6 0 0 0 2.6 2.6 2.6 2.6 0 0 0 2.6-2.6 2.6 2.6 0 0 0-2.6-2.6zm9.036 7.102L35.1 32.5H26l-1.3-1.3-1.03-1.03 1.03-1.03v-.002l3.836-3.836zM19.5 27.838l2.6 2.6v.003l2.06 2.059h-9.322l4.662-4.662zM15.6 33.8h18.2v1.3H15.6v-1.3z" fill="#00FFFE"/><g fill="none" stroke="#616161" stroke-width=".688"><path d="M8.367 43.963c0 .933.946 1.92 1.838 1.92h29.353c.892 0 1.838-.987 1.838-1.92m0 0V14.23L29.01 1.843l-18.805.001c-.946 0-1.838.933-1.838 1.92v40.2"/><path d="M29.01 1.844L41.385 14.23H30.907c-.927 0-1.898-.981-1.898-1.908zm0 0" stroke-linecap="round" stroke-linejoin="round"/></g></svg>