<svg xmlns="http://www.w3.org/2000/svg" width="48" height="48"><path d="M8.407 44.522c0 .932.947 1.92 1.84 1.92h29.351c.893 0 1.84-.988 1.84-1.92" fill="none" stroke="#616161" opacity=".25" stroke-width=".688"/><path d="M15.6 14.3v3.89h3.9V14.3h-3.9zm18.2 0c-6.83.004-12.987 2.855-15.6 7.224V18.2h-1.3v4.615A3.25 3.25 0 0 0 14.3 26a3.25 3.25 0 0 0 2.6 3.178V33.8h-1.3v3.9h3.9v-3.9h-1.3v-3.308c2.62 4.362 8.775 7.208 15.6 7.208v-1.3c-6.895-.004-12.967-3.024-14.937-7.43A3.25 3.25 0 0 0 20.8 26a3.25 3.25 0 0 0-1.942-2.97c1.968-4.408 8.045-7.427 14.942-7.43v-1.3zm-16.9 1.345h1.3v1.3h-1.3v-1.3zm.65 8.405A1.95 1.95 0 0 1 19.5 26a1.95 1.95 0 0 1-1.95 1.95A1.95 1.95 0 0 1 15.6 26a1.95 1.95 0 0 1 1.95-1.95zM16.9 35.1h1.3v1.3h-1.3v-1.3z" fill="#00FE7F"/><g fill="none" stroke="#616161" stroke-width=".688"><path d="M8.367 43.963c0 .933.946 1.92 1.838 1.92h29.353c.892 0 1.838-.987 1.838-1.92m0 0V14.23L29.01 1.843l-18.805.001c-.946 0-1.838.933-1.838 1.92v40.2"/><path d="M29.01 1.844L41.385 14.23H30.907c-.927 0-1.898-.981-1.898-1.908zm0 0" stroke-linecap="round" stroke-linejoin="round"/></g></svg>