<svg xmlns="http://www.w3.org/2000/svg" width="48" height="48"><path d="M8.407 44.522c0 .932.947 1.92 1.84 1.92h29.351c.893 0 1.84-.988 1.84-1.92" fill="none" stroke="#616161" opacity=".25" stroke-width=".688"/><path d="M19.5 15.6a5.2 5.2 0 0 0-5.2 5.2v1.3l.408.642 1.036 1.63.003.003L23.4 36.4V26h6.5a5.2 5.2 0 0 0 0-10.4H19.5zm10.4 1.3a3.9 3.9 0 0 1 .749.077 3.9 3.9 0 0 1 .026.002c.023.004.044.013.067.017a3.9 3.9 0 0 1 .676.21 3.9 3.9 0 0 1 .622.336c.018.012.036.021.053.034a3.9 3.9 0 0 1 .008.004 3.9 3.9 0 0 1 .533.442l.034.031a3.9 3.9 0 0 1 .418.507l.07.098a3.9 3.9 0 0 1 .314.583l.031.07a3.9 3.9 0 0 1 .2.639l.026.106a3.9 3.9 0 0 1 .073.744 3.9 3.9 0 0 1-.077.749 3.9 3.9 0 0 1-.002.026c-.004.023-.013.044-.017.067a3.9 3.9 0 0 1-.21.676 3.9 3.9 0 0 1-.336.622c-.012.018-.021.036-.034.053a3.9 3.9 0 0 1-.004.008 3.9 3.9 0 0 1-.442.533l-.031.034a3.9 3.9 0 0 1-.507.418l-.098.07a3.9 3.9 0 0 1-.583.314l-.07.031a3.9 3.9 0 0 1-.639.2l-.106.026a3.9 3.9 0 0 1-.744.073 3.9 3.9 0 0 1-3.9-3.9 3.9 3.9 0 0 1 3.9-3.9z" fill="#007FFF"/><g fill="none" stroke="#616161" stroke-width=".688"><path d="M8.367 43.963c0 .933.946 1.92 1.838 1.92h29.353c.892 0 1.838-.987 1.838-1.92m0 0V14.23L29.01 1.843l-18.805.001c-.946 0-1.838.933-1.838 1.92v40.2"/><path d="M29.01 1.844L41.385 14.23H30.907c-.927 0-1.898-.981-1.898-1.908zm0 0" stroke-linecap="round" stroke-linejoin="round"/></g></svg>