<svg xmlns="http://www.w3.org/2000/svg" width="48" height="48"><path d="M8.407 44.522c0 .932.947 1.92 1.84 1.92h29.351c.893 0 1.84-.988 1.84-1.92" fill="none" stroke="#616161" opacity=".25" stroke-width=".688"/><g fill="#00BFFE"><path d="M14.3 15.6v20.8h20.8V15.6H14.3zm1.3 1.3h18.2v15.6H15.6V16.9zm0 16.9h18.2v1.3H15.6v-1.3z"/><path d="M18.2 18.2v5.2h5.2v-5.2h-5.2zm7.8 0v5.2h5.2v-5.2H26zM18.2 26v5.2h5.2V26h-5.2zm7.8 0v5.2h5.2V26H26z"/></g><g fill="none" stroke="#616161" stroke-width=".688"><path d="M8.367 43.963c0 .933.946 1.92 1.838 1.92h29.353c.892 0 1.838-.987 1.838-1.92m0 0V14.23L29.01 1.843l-18.805.001c-.946 0-1.838.933-1.838 1.92v40.2"/><path d="M29.01 1.844L41.385 14.23H30.907c-.927 0-1.898-.981-1.898-1.908zm0 0" stroke-linecap="round" stroke-linejoin="round"/></g></svg>