<svg xmlns="http://www.w3.org/2000/svg" width="48" height="48"><path d="M8.407 44.522c0 .932.947 1.92 1.84 1.92h29.351c.893 0 1.84-.988 1.84-1.92" fill="none" stroke="#616161" opacity=".25" stroke-width=".688"/><path d="M14.3 18.2v15.6h10.4v-1.3h-9.1v-.49l.221-.208 4.8-4.502h-1.467L15.6 30.63V19.5h.137l4.469 4.19.506-.907-3.503-3.283h5.325l.722-1.3H14.3zm10.4 0v1.3h7.49l-5.545 5.2h1.473l5.546-5.2h.136v11.13l-3.877-3.632-.503.904 4.16 3.9.22.208v.49h-6.934l-.722 1.3H35.1V18.2H24.7z" fill="#FF007F"/><g fill="none" stroke="#616161" stroke-width=".688"><path d="M8.367 43.963c0 .933.946 1.92 1.838 1.92h29.353c.892 0 1.838-.987 1.838-1.92m0 0V14.23L29.01 1.843l-18.805.001c-.946 0-1.838.933-1.838 1.92v40.2"/><path d="M29.01 1.844L41.385 14.23H30.907c-.927 0-1.898-.981-1.898-1.908zm0 0" stroke-linecap="round" stroke-linejoin="round"/></g></svg>