<svg xmlns="http://www.w3.org/2000/svg" width="48" height="48"><path d="M8.407 44.522c0 .932.947 1.92 1.84 1.92h29.351c.893 0 1.84-.988 1.84-1.92" fill="none" stroke="#616161" opacity=".25" stroke-width=".688"/><path d="M26.65 15.6l-5.2 20.48 1.3.32 5.2-20.48-1.3-.32zm2.919 3.9l-.969.923L33.364 26 28.6 31.577l.969.923 5.168-6.038L35.1 26l-.364-.461L29.57 19.5zm-9.737 0l.968.923L16.035 26l4.765 5.577-.969.923-5.167-6.038L14.3 26l.364-.461 5.167-6.039z" fill="#FE00BF" color="#7F8080"/><g fill="none" stroke="#616161" stroke-width=".688"><path d="M8.367 43.963c0 .933.946 1.92 1.838 1.92h29.353c.892 0 1.838-.987 1.838-1.92m0 0V14.23L29.01 1.843l-18.805.001c-.946 0-1.838.933-1.838 1.92v40.2"/><path d="M29.01 1.844L41.385 14.23H30.907c-.927 0-1.898-.981-1.898-1.908zm0 0" stroke-linecap="round" stroke-linejoin="round"/></g></svg>