<svg xmlns="http://www.w3.org/2000/svg" width="48" height="48"><path d="M8.407 44.522c0 .932.947 1.92 1.84 1.92h29.351c.893 0 1.84-.988 1.84-1.92" fill="none" stroke="#616161" opacity=".25" stroke-width=".688"/><g fill="#7F8080" stroke-width="2"><path d="M24.7 15.6A10.4 10.4 0 0 0 14.3 26a10.4 10.4 0 0 0 10.4 10.4A10.4 10.4 0 0 0 35.1 26a10.4 10.4 0 0 0-10.4-10.4zm0 1.3a9.1 9.1 0 0 1 9.1 9.1 9.1 9.1 0 0 1-9.1 9.1 9.1 9.1 0 0 1-9.1-9.1 9.1 9.1 0 0 1 9.1-9.1z"/><path d="M24.7 19.5a6.5 6.5 0 0 0-6.5 6.5 6.5 6.5 0 0 0 6.5 6.5 6.5 6.5 0 0 0 4.593-1.907l-.92-.92A5.2 5.2 0 0 1 24.7 31.2a5.2 5.2 0 0 1-5.2-5.2 5.2 5.2 0 0 1 5.2-5.2 5.2 5.2 0 0 1 3.674 1.526l.919-.919A6.5 6.5 0 0 0 24.7 19.5z"/></g><g fill="none" stroke="#616161" stroke-width=".688"><path d="M8.367 43.963c0 .933.946 1.92 1.838 1.92h29.353c.892 0 1.838-.987 1.838-1.92m0 0V14.23L29.01 1.843l-18.805.001c-.946 0-1.838.933-1.838 1.92v40.2"/><path d="M29.01 1.844L41.385 14.23H30.907c-.927 0-1.898-.981-1.898-1.908zm0 0" stroke-linecap="round" stroke-linejoin="round"/></g></svg>