<svg xmlns="http://www.w3.org/2000/svg" width="48" height="48"><path d="M8.407 44.522c0 .932.947 1.92 1.84 1.92h29.351c.893 0 1.84-.988 1.84-1.92" fill="none" stroke="#616161" opacity=".25" stroke-width=".688"/><g fill="#7F8080"><path d="M14.3 15.6v20.8h14.3v-13h5.2v5.2h1.3v-13H14.3zm1.3 1.3h18.2v5.2H15.6v-5.2zm0 6.5h5.2v5.2h-5.2v-5.2zm6.5 0h5.2v5.2h-5.2v-5.2zm-6.5 6.5h5.2v5.2h-5.2v-5.2zm6.5 0h5.2v5.2h-5.2v-5.2z"/><path d="M31.85 29.9c-1.08 0-1.95.83-1.95 1.859 0 .992.81 1.789 1.836 1.846.075.34.113.686.114 1.034a4.905 4.905 0 0 1-.335 1.761c1.43-.954 2.282-2.513 2.285-4.177v-.464c0-1.03-.87-1.859-1.95-1.859z"/></g><g fill="none" stroke="#616161" stroke-width=".688"><path d="M8.367 43.963c0 .933.946 1.92 1.838 1.92h29.353c.892 0 1.838-.987 1.838-1.92m0 0V14.23L29.01 1.843l-18.805.001c-.946 0-1.838.933-1.838 1.92v40.2"/><path d="M29.01 1.844L41.385 14.23H30.907c-.927 0-1.898-.981-1.898-1.908zm0 0" stroke-linecap="round" stroke-linejoin="round"/></g></svg>