<svg xmlns="http://www.w3.org/2000/svg" width="48" height="48"><path d="M8.407 44.522c0 .932.947 1.92 1.84 1.92h29.351c.893 0 1.84-.988 1.84-1.92" fill="none" stroke="#616161" opacity=".25" stroke-width=".688"/><g fill="#7F8080"><path d="M10.4 18.2v15.73H39V18.2zm1.3 1.3h26v13.13h-26z"/><path d="M13 20.8v10.4h2.6v-6.726l2.6 2.6 2.6-2.6V31.2h2.6V20.8h-2.603L18.2 23.397 15.603 20.8H13zm16.9 0V26H26l5.2 5.2 5.2-5.2h-3.9v-5.2h-2.6z"/></g><g fill="none" stroke="#616161" stroke-width=".688"><path d="M8.367 43.963c0 .933.946 1.92 1.838 1.92h29.353c.892 0 1.838-.987 1.838-1.92m0 0V14.23L29.01 1.843l-18.805.001c-.946 0-1.838.933-1.838 1.92v40.2"/><path d="M29.01 1.844L41.385 14.23H30.907c-.927 0-1.898-.981-1.898-1.908zm0 0" stroke-linecap="round" stroke-linejoin="round"/></g></svg>