<svg xmlns="http://www.w3.org/2000/svg" width="48" height="48"><path d="M8.407 44.522c0 .932.947 1.92 1.84 1.92h29.351c.893 0 1.84-.988 1.84-1.92" fill="none" stroke="#616161" opacity=".25" stroke-width=".688"/><path style="isolation:auto;mix-blend-mode:normal;solid-color:#7f8080;solid-opacity:1;marker:none" d="M22.1 18.2v2.6h2.6v-2.6zm3.9 0v2.6h2.6v-2.6zm6.09 3.476c-.829.567-1.027 1.593-.768 2.561.26.969.92 1.667 1.919 1.745a2.369 2.369 0 0 0 2.23 1.58 2.369 2.369 0 0 0 2.229-1.58 2.366 2.366 0 0 0-2.23-1.577 2.366 2.366 0 0 0-1.338.42c.16-.451.18-.943.057-1.404a2.367 2.367 0 0 0-2.1-1.745zm1.151 4.306H14.3c0 5.231 4.24 7.895 9.47 7.895 5.232 0 9.471-2.665 9.471-7.895zM16.9 22.1v2.6h2.6v-2.6zm3.9 0v2.6h2.6v-2.6zm3.9 0v2.6h2.6v-2.6zm3.9 0v2.6h2.6v-2.6zm-10.4 5.2a1.3 1.3 0 0 1 1.3 1.3 1.3 1.3 0 0 1-1.3 1.3 1.3 1.3 0 0 1-1.3-1.3 1.3 1.3 0 0 1 1.3-1.3z" color="#7F8080" overflow="visible" fill="#00BFFE"/><g fill="none" stroke="#616161" stroke-width=".688"><path d="M8.367 43.963c0 .933.946 1.92 1.838 1.92h29.353c.892 0 1.838-.987 1.838-1.92m0 0V14.23L29.01 1.843l-18.805.001c-.946 0-1.838.933-1.838 1.92v40.2"/><path d="M29.01 1.844L41.385 14.23H30.907c-.927 0-1.898-.981-1.898-1.908zm0 0" stroke-linecap="round" stroke-linejoin="round"/></g></svg>