<svg xmlns="http://www.w3.org/2000/svg" width="48" height="48"><path d="M8.407 44.522c0 .932.947 1.92 1.84 1.92h29.351c.893 0 1.84-.988 1.84-1.92" fill="none" stroke="#616161" opacity=".25" stroke-width=".688"/><path d="M16.9 14.303a3.9 3.9 0 0 0-3.9 3.9 3.9 3.9 0 0 0 3.9 3.9 3.9 3.9 0 0 0 3.9-3.9 3.9 3.9 0 0 0-3.9-3.9m3.9 3.9a3.9 3.9 0 0 0 3.9 3.9 3.9 3.9 0 0 0 3.9-3.9 3.9 3.9 0 0 0-3.9-3.9 3.9 3.9 0 0 0-3.9 3.9m-3.9-2.6a2.6 2.6 0 0 1 2.6 2.6 2.6 2.6 0 0 1-2.6 2.6 2.6 2.6 0 0 1-1.782-.714 1.95 1.95 0 0 0 .482.065 1.95 1.95 0 0 0 1.95-1.95 1.95 1.95 0 0 0-1.95-1.95 1.95 1.95 0 0 0-.487.062 2.6 2.6 0 0 1 1.787-.712m7.8 0a2.6 2.6 0 0 1 2.6 2.6 2.6 2.6 0 0 1-2.6 2.6 2.6 2.6 0 0 1-1.782-.715 1.95 1.95 0 0 0 .482.065 1.95 1.95 0 0 0 1.95-1.95 1.95 1.95 0 0 0-1.95-1.95 1.95 1.95 0 0 0-.487.062 2.6 2.6 0 0 1 1.787-.712m1.404 7.998c-1.215.689-3.194 1.1-5.304 1.102-1.812-.001-3.542-.304-4.771-.839l-.818.955c.5.257 1.08.46 1.689.637v1.846a2.6 2.6 0 0 0 2.6 2.6 2.6 2.6 0 0 0 1.95-.884 2.6 2.6 0 0 0 1.95.884 2.6 2.6 0 0 0 2.6-2.6v-2.305a7.24 7.24 0 0 0 .98-.52zM24.7 25.454v1.851a1.3 1.3 0 0 1-1.3 1.3 1.3 1.3 0 0 1-1.3-1.3V25.93a13.395 13.395 0 0 0 2.6-.475m-6.5.31c.83.148 1.702.24 2.6.241v1.3a1.3 1.3 0 0 1-1.3 1.3 1.3 1.3 0 0 1-1.3-1.3z" fill="#7F8080" color="#7F8080"/><g fill="none" stroke="#616161" stroke-width=".688"><path d="M8.367 43.963c0 .933.946 1.92 1.838 1.92h29.353c.892 0 1.838-.987 1.838-1.92m0 0V14.23L29.01 1.843l-18.805.001c-.946 0-1.838.933-1.838 1.92v40.2"/><path d="M29.01 1.844L41.385 14.23H30.907c-.927 0-1.898-.981-1.898-1.908zm0 0" stroke-linecap="round" stroke-linejoin="round"/></g></svg>