<svg xmlns="http://www.w3.org/2000/svg" width="48" height="48"><path d="M8.407 44.522c0 .932.947 1.92 1.84 1.92h29.351c.893 0 1.84-.988 1.84-1.92" fill="none" stroke="#616161" opacity=".25" stroke-width=".688"/><g fill="#007FFF"><path d="M31.2 15.6v2.6h-2.6v1.3h2.6v2.6h1.3v-2.6h2.6v-1.3h-2.6v-2.6zm-7.8 0v2.6h-2.6v1.3h2.6v2.6h1.3v-2.6h2.6v-1.3h-2.6v-2.6z"/><path d="M20.8 23.4a6.5 6.5 0 0 0-6.5 6.5 6.5 6.5 0 0 0 6.5 6.5 6.5 6.5 0 0 0 4.593-1.907l-.92-.92A5.2 5.2 0 0 1 20.8 35.1a5.2 5.2 0 0 1-5.2-5.2 5.2 5.2 0 0 1 5.2-5.2 5.2 5.2 0 0 1 3.674 1.526l.919-.919A6.5 6.5 0 0 0 20.8 23.4z" fill-rule="evenodd"/></g><g fill="none" stroke="#616161" stroke-width=".688"><path d="M8.367 43.963c0 .933.946 1.92 1.838 1.92h29.353c.892 0 1.838-.987 1.838-1.92m0 0V14.23L29.01 1.843l-18.805.001c-.946 0-1.838.933-1.838 1.92v40.2"/><path d="M29.01 1.844L41.385 14.23H30.907c-.927 0-1.898-.981-1.898-1.908zm0 0" stroke-linecap="round" stroke-linejoin="round"/></g></svg>