<svg xmlns="http://www.w3.org/2000/svg" width="48" height="48"><path d="M8.407 44.522c0 .932.947 1.92 1.84 1.92h29.351c.893 0 1.84-.988 1.84-1.92" fill="none" stroke="#616161" opacity=".25" stroke-width=".688"/><path d="M13 15.603V19.5h2.6v13H13v3.877s4.505.023 9.1.023v-3.9h-3.427v-5.2l5.945-.035c.355-.003 1.573.551 2.626 2.535.5 1.095 1.372 2.643 1.807 3.384.512.776 1.48 3.216 2.48 3.216 2.15-.017 2.87-.001 4.869-.001v-4.416c-.296.202-.858.477-1.183.517-1.425.01-1.996-.767-2.504-1.777-.78-2.366-2.186-4.32-3.405-5.373 1.51-1.053 4.68-.773 4.764-4.7-.078-3.508-2.442-5.045-5.34-5.049L13 15.6zm5.673 3.897h6.775c.943 0 2.167.693 2.167 1.994 0 1.082-.897 1.906-2.34 1.906h-6.603z" fill="#007FFF"/><g fill="none" stroke="#616161" stroke-width=".688"><path d="M8.367 43.963c0 .933.946 1.92 1.838 1.92h29.353c.892 0 1.838-.987 1.838-1.92m0 0V14.23L29.01 1.843l-18.805.001c-.946 0-1.838.933-1.838 1.92v40.2"/><path d="M29.01 1.844L41.385 14.23H30.907c-.927 0-1.898-.981-1.898-1.908zm0 0" stroke-linecap="round" stroke-linejoin="round"/></g></svg>