<svg xmlns="http://www.w3.org/2000/svg" width="48" height="48"><path d="M8.407 44.522c0 .932.947 1.92 1.84 1.92h29.351c.893 0 1.84-.988 1.84-1.92" fill="none" stroke="#616161" opacity=".25" stroke-width=".688"/><path d="M22.967 15.6a3.458 3.458 0 0 0-3.467 3.467h5.2V20.8h-6.933a3.458 3.458 0 0 0-3.467 3.467v3.466a3.458 3.458 0 0 0 3.467 3.467v-1.733c0-1.54.676-2.905 1.733-3.856l.004-.004a5.55 5.55 0 0 1 .737-.555l.008-.004a4.992 4.992 0 0 1 .815-.412c.052-.02.107-.032.16-.052.242-.087.489-.169.747-.22a5.239 5.239 0 0 1 .996-.097H29.9v-5.2a3.458 3.458 0 0 0-3.467-3.467zm0 .867a.865.865 0 1 1-.867.867c0-.48.386-.867.867-.867zm8.666 4.333v1.733a5.174 5.174 0 0 1-1.737 3.86 5.365 5.365 0 0 1-.737.555l-.008.004a4.992 4.992 0 0 1-.815.412c-.052.02-.107.032-.16.052a5.106 5.106 0 0 1-.747.22 5.239 5.239 0 0 1-.996.097H19.5v5.2a3.458 3.458 0 0 0 3.467 3.467h3.466a3.458 3.458 0 0 0 3.467-3.467h-5.2V31.2h6.933a3.458 3.458 0 0 0 3.467-3.467v-3.466a3.458 3.458 0 0 0-3.467-3.467zm-5.2 13c.48 0 .867.386.867.867s-.386.866-.867.866a.866.866 0 1 1 0-1.733z" fill="#FFBF00"/><g fill="none" stroke="#616161" stroke-width=".688"><path d="M8.367 43.963c0 .933.946 1.92 1.838 1.92h29.353c.892 0 1.838-.987 1.838-1.92m0 0V14.23L29.01 1.843l-18.805.001c-.946 0-1.838.933-1.838 1.92v40.2"/><path d="M29.01 1.844L41.385 14.23H30.907c-.927 0-1.898-.981-1.898-1.908zm0 0" stroke-linecap="round" stroke-linejoin="round"/></g></svg>