<svg xmlns="http://www.w3.org/2000/svg" width="48" height="48"><path d="M8.407 44.522c0 .932.947 1.92 1.84 1.92h29.351c.893 0 1.84-.988 1.84-1.92" fill="none" stroke="#616161" opacity=".25" stroke-width=".688"/><path style="line-height:125%;-inkscape-font-specification:oxygen" d="M23.4 15.603c-2.265.016-3.22.936-3.22 3.26v3.172c0 1.448-.044 3.125-1.32 3.125h-.66v1.677h.66c1.276 0 1.32 1.677 1.32 3.125v3.174c0 2.323.955 3.243 3.22 3.26v-1.54c-1.476-.016-1.503-.65-1.503-2.87v-2.619c0-1.08-.266-2.688-1.564-3.354 1.298-.667 1.564-2.276 1.564-3.357v-2.642c0-2.22.027-2.855 1.503-2.873v-1.537zm2.6.002v1.538c1.455.025 1.503.66 1.503 2.87v2.643c0 1.08.266 2.691 1.564 3.357-1.298.666-1.564 2.274-1.564 3.354v2.62c0 2.21-.048 2.847-1.503 2.869v1.539c2.249-.022 3.22-.941 3.22-3.258v-3.172c0-1.448.088-3.125 1.343-3.125h.637v-1.677h-.637c-1.254 0-1.343-1.677-1.343-3.125v-3.175c0-2.317-.97-3.236-3.22-3.258zM15.6 35.1v1.3h1.3v-1.3h-1.3z" font-weight="400" font-family="oxygen" letter-spacing="0" word-spacing="0" fill="#FFBF00"/><g fill="none" stroke="#616161" stroke-width=".688"><path d="M8.367 43.963c0 .933.946 1.92 1.838 1.92h29.353c.892 0 1.838-.987 1.838-1.92m0 0V14.23L29.01 1.843l-18.805.001c-.946 0-1.838.933-1.838 1.92v40.2"/><path d="M29.01 1.844L41.385 14.23H30.907c-.927 0-1.898-.981-1.898-1.908zm0 0" stroke-linecap="round" stroke-linejoin="round"/></g></svg>