<svg xmlns="http://www.w3.org/2000/svg" width="48" height="48"><path d="M8.407 44.522c0 .932.947 1.92 1.84 1.92h29.351c.893 0 1.84-.988 1.84-1.92" fill="none" stroke="#616161" opacity=".25" stroke-width=".688"/><path d="M15.41 16.9a1.123 1.123 0 0 0-1.11 1.137v15.925c0 .63.497 1.138 1.11 1.138h18.58c.61 0 1.11-.508 1.11-1.137V18.034a1.126 1.126 0 0 0-1.112-1.135H15.41zm12.513 1.3a.65.65 0 0 1 .677.611v.039a.65.65 0 0 1-.64.65.65.65 0 0 1-.66-.632.65.65 0 0 1 .623-.668zm2.6 0a.65.65 0 0 1 .677.611v.039a.65.65 0 0 1-.64.65.65.65 0 0 1-.66-.632.65.65 0 0 1 .623-.668zm2.6 0a.65.65 0 0 1 .677.611v.039a.65.65 0 0 1-.64.65.65.65 0 0 1-.66-.632.65.65 0 0 1 .623-.668zM15.6 20.8h18.2v13H15.6v-13z" fill="#00FE7F"/><g fill="none" stroke="#616161" stroke-width=".688"><path d="M8.367 43.963c0 .933.946 1.92 1.838 1.92h29.353c.892 0 1.838-.987 1.838-1.92m0 0V14.23L29.01 1.843l-18.805.001c-.946 0-1.838.933-1.838 1.92v40.2"/><path d="M29.01 1.844L41.385 14.23H30.907c-.927 0-1.898-.981-1.898-1.908zm0 0" stroke-linecap="round" stroke-linejoin="round"/></g></svg>