<svg xmlns="http://www.w3.org/2000/svg" width="48" height="48"><path d="M8.407 44.522c0 .932.947 1.92 1.84 1.92h29.351c.893 0 1.84-.988 1.84-1.92" fill="none" stroke="#616161" opacity=".25" stroke-width=".688"/><path d="M14.3 15.6v20.8h1.3v-6.5a3.9 3.9 0 0 1 3.9-3.9 3.9 3.9 0 0 1 3.9 3.9v6.5h1.3v-6.5a5.2 5.2 0 0 0-5.2-5.2 5.2 5.2 0 0 0-3.9 1.77V15.6zm9.1 0v2.6h-2.6v1.3h2.6v2.6h1.3v-2.6h2.6v-1.3h-2.6v-2.6zm7.8 0v2.6h-2.6v1.3h2.6v2.6h1.3v-2.6h2.6v-1.3h-2.6v-2.6z" fill="#FE00BF"/><g fill="none" stroke="#616161" stroke-width=".688"><path d="M8.367 43.963c0 .933.946 1.92 1.838 1.92h29.353c.892 0 1.838-.987 1.838-1.92m0 0V14.23L29.01 1.843l-18.805.001c-.946 0-1.838.933-1.838 1.92v40.2"/><path d="M29.01 1.844L41.385 14.23H30.907c-.927 0-1.898-.981-1.898-1.908zm0 0" stroke-linecap="round" stroke-linejoin="round"/></g></svg>