<svg xmlns="http://www.w3.org/2000/svg" width="48" height="48"><path d="M8.407 44.522c0 .932.947 1.92 1.84 1.92h29.351c.893 0 1.84-.988 1.84-1.92" fill="none" stroke="#616161" opacity=".25" stroke-width=".688"/><path d="M14.3 15.6L19.5 26l-5.2 10.4h2.907l5.2-10.4-5.2-10.4H14.3zm5.2 0L24.7 26h-.013l.008.013L19.5 36.4h2.907l3.74-7.48 3.74 7.48h2.908L27.6 26.013l.008-.013-5.2-10.4H19.5zm9.715 7.8l1.3 2.6H35.1v-2.6h-5.885zm2.6 5.2l1.3 2.6H35.1v-2.6h-3.285z" fill="#7F8080" color="#7F8080" fill-rule="evenodd"/><g fill="none" stroke="#616161" stroke-width=".688"><path d="M8.367 43.963c0 .933.946 1.92 1.838 1.92h29.353c.892 0 1.838-.987 1.838-1.92m0 0V14.23L29.01 1.843l-18.805.001c-.946 0-1.838.933-1.838 1.92v40.2"/><path d="M29.01 1.844L41.385 14.23H30.907c-.927 0-1.898-.981-1.898-1.908zm0 0" stroke-linecap="round" stroke-linejoin="round"/></g></svg>