<svg xmlns="http://www.w3.org/2000/svg" width="48" height="48"><path d="M8.407 44.522c0 .932.947 1.92 1.84 1.92h29.351c.893 0 1.84-.988 1.84-1.92" fill="none" stroke="#616161" opacity=".25" stroke-width=".688"/><path d="M26.65 14.3a1.95 1.95 0 0 0-1.95 1.95 1.95 1.95 0 0 0 1.95 1.95 1.95 1.95 0 0 0 1.95-1.95 1.95 1.95 0 0 0-1.95-1.95m-6.5 1.3A7.15 7.15 0 0 0 13 22.75a7.15 7.15 0 0 0 7.15 7.15 7.15 7.15 0 0 0 7.15-7.15 7.15 7.15 0 0 0-1.668-4.58A2.6 2.6 0 0 1 26 19.5a2.6 2.6 0 0 1-2.6 2.6 2.6 2.6 0 0 1-2.6-2.6 2.6 2.6 0 0 1 2.6-2.6 2.6 2.6 0 0 1 1.369.394A7.15 7.15 0 0 0 20.15 15.6" fill="#007FFF" color="#7F8080"/><g fill="none" stroke="#616161" stroke-width=".688"><path d="M8.367 43.963c0 .933.946 1.92 1.838 1.92h29.353c.892 0 1.838-.987 1.838-1.92m0 0V14.23L29.01 1.843l-18.805.001c-.946 0-1.838.933-1.838 1.92v40.2"/><path d="M29.01 1.844L41.385 14.23H30.907c-.927 0-1.898-.981-1.898-1.908zm0 0" stroke-linecap="round" stroke-linejoin="round"/></g></svg>