<svg xmlns="http://www.w3.org/2000/svg" width="48" height="48"><path d="M8.407 44.522c0 .932.947 1.92 1.84 1.92h29.351c.893 0 1.84-.988 1.84-1.92" fill="none" stroke="#616161" opacity=".25" stroke-width=".688"/><path d="M24.7 15.6a5.2 5.2 0 0 0-5.031 3.9H23.4v2.6h-3.9v2.6h3.9v2.6h-3.727a5.2 5.2 0 0 0 5.027 3.9 5.2 5.2 0 0 0 5.031-3.9H26v-2.6h3.9v-2.6H26v-2.6h3.727a5.2 5.2 0 0 0-5.027-3.9zm-7.8 11.7a7.8 6.5 0 0 0 6.5 6.409v.091l-2.6 2.6h7.8L26 33.8v-.099a7.8 6.5 0 0 0 6.5-6.401h-1.3a6.5 5.2 0 0 1-6.5 5.2 6.5 5.2 0 0 1-6.5-5.2h-1.3z" fill="#007FFF" fill-rule="evenodd"/><g fill="none" stroke="#616161" stroke-width=".688"><path d="M8.367 43.963c0 .933.946 1.92 1.838 1.92h29.353c.892 0 1.838-.987 1.838-1.92m0 0V14.23L29.01 1.843l-18.805.001c-.946 0-1.838.933-1.838 1.92v40.2"/><path d="M29.01 1.844L41.385 14.23H30.907c-.927 0-1.898-.981-1.898-1.908zm0 0" stroke-linecap="round" stroke-linejoin="round"/></g></svg>