<svg xmlns="http://www.w3.org/2000/svg" width="48" height="48"><path d="M8.407 44.522c0 .932.947 1.92 1.84 1.92h29.351c.893 0 1.84-.988 1.84-1.92" fill="none" stroke="#616161" opacity=".25" stroke-width=".688"/><path style="isolation:auto;mix-blend-mode:normal;solid-color:#7f8080;solid-opacity:1;marker:none" d="M18.2 15.6v3.9h1.3v3.974a3.25 3.25 0 0 0-2.6 3.176 3.25 3.25 0 0 0 2.6 3.179V33.8h-1.3v3.9h3.9v-3.9h-1.3v-2.366A13 11.05 0 0 0 32.5 37.7a13 11.05 0 0 0 1.3-.056v-1.318a11.7 9.75 0 0 1-1.3.074 11.7 9.75 0 0 1-11.119-6.754A3.246 3.246 0 0 0 23.4 26.65a3.247 3.247 0 0 0-2.024-3.003A11.7 9.75 0 0 1 32.5 16.9a11.7 9.75 0 0 1 1.3.065v-1.3a13 11.05 0 0 0-1.3-.065 13 11.05 0 0 0-11.7 6.253V19.5h1.3v-3.9h-3.9zm1.3 1.3h1.3v1.3h-1.3v-1.3zm.65 7.8a1.95 1.95 0 0 1 1.643.903 1.95 1.95 0 0 1 .224.488l.002.005a1.95 1.95 0 0 1 0 .005 1.95 1.95 0 0 1 .081.549 1.95 1.95 0 0 1-.082.556 1.95 1.95 0 0 1-.222.488l-.003.005a1.95 1.95 0 0 1-.002.003 1.95 1.95 0 0 1-.349.403 1.95 1.95 0 0 1-1.292.495 1.95 1.95 0 0 1-1.521-.732 1.95 1.95 0 0 1-.31-.552l-.007-.021a1.95 1.95 0 0 1-.112-.645 1.95 1.95 0 0 1 .11-.637l.012-.034a1.95 1.95 0 0 1 .302-.538v-.003a1.95 1.95 0 0 1 1.526-.738zm-.65 10.4h1.3v1.3h-1.3v-1.3z" color="#7F8080" overflow="visible" fill="#00BFFE"/><g fill="none" stroke="#616161" stroke-width=".688"><path d="M8.367 43.963c0 .933.946 1.92 1.838 1.92h29.353c.892 0 1.838-.987 1.838-1.92m0 0V14.23L29.01 1.843l-18.805.001c-.946 0-1.838.933-1.838 1.92v40.2"/><path d="M29.01 1.844L41.385 14.23H30.907c-.927 0-1.898-.981-1.898-1.908zm0 0" stroke-linecap="round" stroke-linejoin="round"/></g></svg>