<svg xmlns="http://www.w3.org/2000/svg" width="48" height="48"><path d="M8.407 44.522c0 .932.947 1.92 1.84 1.92h29.351c.893 0 1.84-.988 1.84-1.92" fill="none" stroke="#616161" opacity=".25" stroke-width=".688"/><path d="M20.8 19.5c-2.16 0-3.9 1.74-3.9 3.9s1.74 3.9 3.9 3.9 3.9-1.74 3.9-3.9-1.74-3.9-3.9-3.9zm0 1.3a2.6 2.6 0 0 1 2.6 2.6 2.6 2.6 0 0 1-2.6 2.6 2.6 2.6 0 0 1-2.6-2.6 2.6 2.6 0 0 1 2.6-2.6zm0 7.8a6.486 6.486 0 0 0-6.5 6.5v1.3h13v-1.3c0-3.601-2.899-6.5-6.5-6.5zm0 1.3c2.88 0 5.2 2.32 5.2 5.2H15.6c0-2.88 2.32-5.2 5.2-5.2zm7.8-14.3c-2.16 0-3.9 1.74-3.9 3.9s1.74 3.9 3.9 3.9 3.9-1.74 3.9-3.9-1.74-3.9-3.9-3.9zm0 1.3a2.6 2.6 0 0 1 2.6 2.6 2.6 2.6 0 0 1-2.6 2.6 2.6 2.6 0 0 1-2.6-2.6 2.6 2.6 0 0 1 2.6-2.6zm0 7.8c-.84 0-1.633.174-2.363.47l.591 1.188c.557-.208 1.14-.358 1.772-.358 2.88 0 5.2 2.32 5.2 5.2h-4.55l.65 1.3h5.2v-1.3c0-3.601-2.899-6.5-6.5-6.5z" fill="#00BFFE"/><g fill="none" stroke="#616161" stroke-width=".688"><path d="M8.367 43.963c0 .933.946 1.92 1.838 1.92h29.353c.892 0 1.838-.987 1.838-1.92m0 0V14.23L29.01 1.843l-18.805.001c-.946 0-1.838.933-1.838 1.92v40.2"/><path d="M29.01 1.844L41.385 14.23H30.907c-.927 0-1.898-.981-1.898-1.908zm0 0" stroke-linecap="round" stroke-linejoin="round"/></g></svg>