<svg xmlns="http://www.w3.org/2000/svg" width="48" height="48"><path d="M8.407 44.522c0 .932.947 1.92 1.84 1.92h29.351c.893 0 1.84-.988 1.84-1.92" fill="none" stroke="#616161" opacity=".25" stroke-width=".688"/><g fill="#7F8080"><path d="M14.3 15.6v20.8h20.8V15.6h-2.6v3.9h-2.6v-3.9H19.5v3.9h-2.6v-3.9h-2.6zm1.3 5.2h18.2v14.3H15.6V20.8z"/><path d="M18.2 22.1v2.6h2.6v-2.6h-2.6zm5.2 0v2.6H26v-2.6h-2.6zm5.2 0v2.6h2.6v-2.6h-2.6zM18.2 26v2.6h2.6V26h-2.6zm5.2 0v2.6H26V26h-2.6zm5.2 0v2.6h2.6V26h-2.6zm0 3.9v2.6h2.6v-2.6h-2.6z"/></g><g fill="none" stroke="#616161" stroke-width=".688"><path d="M8.367 43.963c0 .933.946 1.92 1.838 1.92h29.353c.892 0 1.838-.987 1.838-1.92m0 0V14.23L29.01 1.843l-18.805.001c-.946 0-1.838.933-1.838 1.92v40.2"/><path d="M29.01 1.844L41.385 14.23H30.907c-.927 0-1.898-.981-1.898-1.908zm0 0" stroke-linecap="round" stroke-linejoin="round"/></g></svg>